<svg data-name="Group 428" xmlns="http://www.w3.org/2000/svg" width="22.394" height="22.395"><path data-name="Path 583" d="M1.12 21.748a.777.777 0 00.795.647h17.86a.777.777 0 00.795-.647l1.119-8.951H.001zm17.319-7.351a.4.4 0 11.8 0v2.4a.4.4 0 01-.8 0zm0 4a.4.4 0 11.8 0v2.4a.4.4 0 11-.8 0zm-1.6-4a.4.4 0 11.8 0v2.4a.4.4 0 01-.8 0zm0 4a.4.4 0 11.8 0v2.4a.4.4 0 11-.8 0zm-1.6-4a.4.4 0 11.8 0v2.4a.4.4 0 01-.8 0zm0 4a.4.4 0 11.8 0v2.4a.4.4 0 11-.8 0zm-1.6-4a.4.4 0 11.8 0v2.4a.4.4 0 01-.8 0zm0 4a.4.4 0 11.8 0v2.4a.4.4 0 11-.8 0zm-1.6-4a.4.4 0 11.8 0v2.4a.4.4 0 01-.8 0zm0 4a.4.4 0 11.8 0v2.4a.4.4 0 11-.8 0zm-1.6-4a.4.4 0 11.8 0v2.4a.4.4 0 01-.8 0zm0 4a.4.4 0 11.8 0v2.4a.4.4 0 11-.8 0zm-1.6-4a.4.4 0 11.8 0v2.4a.4.4 0 01-.8 0zm0 4a.4.4 0 11.8 0v2.4a.4.4 0 11-.8 0zm-1.6-4a.4.4 0 11.8 0v2.4a.4.4 0 01-.8 0zm0 4a.4.4 0 11.8 0v2.4a.4.4 0 11-.8 0zm-1.6-4a.4.4 0 11.8 0v2.4a.4.4 0 01-.8 0zm0 4a.4.4 0 11.8 0v2.4a.4.4 0 11-.8 0zm-1.6-4a.4.4 0 11.8 0v2.4a.4.4 0 01-.8 0zm0 4a.4.4 0 11.8 0v2.4a.4.4 0 11-.8 0zm-1.6-4a.4.4 0 11.8 0v2.4a.4.4 0 01-.8 0zm0 4a.4.4 0 11.8 0v2.4a.4.4 0 11-.8 0z" fill="#6c6d6e"/><path data-name="Path 584" d="M22.394 10.4h-5.368L13.141.51a.8.8 0 10-1.489.585l3.655 9.3H7.086l3.655-9.3A.8.8 0 109.252.51L5.368 10.4H0V12h22.394z" fill="#6c6d6e"/></svg>