<svg data-name="Group 300" xmlns="http://www.w3.org/2000/svg" width="25.906" height="22.573"><path data-name="Path 561" d="M7.636 14.586a11.833 11.833 0 01-2.886.31 11.834 11.834 0 01-2.886-.31 10.138 10.138 0 00-1.863-.262v3.117a11.472 11.472 0 012.166.3 10.479 10.479 0 002.583.278 10.478 10.478 0 002.583-.278 11.839 11.839 0 012.886-.31 11.837 11.837 0 012.886.31 10.476 10.476 0 002.583.278 10.476 10.476 0 002.583-.278 11.836 11.836 0 012.886-.31 11.837 11.837 0 012.886.31 10.162 10.162 0 001.863.262v-3.116a11.444 11.444 0 01-2.166-.3 10.477 10.477 0 00-2.583-.278 10.476 10.476 0 00-2.583.278 11.831 11.831 0 01-2.886.31 11.831 11.831 0 01-2.886-.31 10.477 10.477 0 00-2.583-.278 10.481 10.481 0 00-2.583.277z" fill="#6c6d6e"/><path data-name="Path 562" d="M4.75 22.568a10.479 10.479 0 002.583-.278 11.834 11.834 0 012.886-.31 11.834 11.834 0 012.886.31 10.47 10.47 0 002.583.278 10.477 10.477 0 002.583-.278 11.831 11.831 0 012.886-.31 11.834 11.834 0 012.886.31 10.134 10.134 0 001.863.262v-3.117a11.466 11.466 0 01-2.166-.3 10.47 10.47 0 00-2.583-.278 10.472 10.472 0 00-2.583.278 11.84 11.84 0 01-2.886.31 11.84 11.84 0 01-2.886-.31 10.47 10.47 0 00-2.583-.278 10.475 10.475 0 00-2.583.278 11.842 11.842 0 01-2.886.31 11.843 11.843 0 01-2.886-.31A10.159 10.159 0 000 18.882v3.116a11.449 11.449 0 012.166.3 10.479 10.479 0 002.584.27z" fill="#6c6d6e"/><path data-name="Path 563" d="M12.369 13.032v-1.055h4.986v1.376c.338-.049.624-.11.917-.173.277-.059.557-.12.882-.171V3.444a1.645 1.645 0 013.29 0v.844a.9.9 0 101.8 0V3.44A3.448 3.448 0 0020.8-.004h-6.785a3.448 3.448 0 00-3.444 3.444v9.429a11.54 11.54 0 011.798.163zm1.645-11.233h3.76a3.422 3.422 0 00-.418 1.593h-4.985a1.646 1.646 0 011.643-1.593zm-1.645 3.389h4.986v1.6h-4.986zm0 3.393h4.986v1.593h-4.986z" fill="#6c6d6e"/></svg>