<svg data-name="Group 302" xmlns="http://www.w3.org/2000/svg" width="22.479" height="22.479"><path data-name="Path 576" d="M11.898 3.83a1.953 1.953 0 00.659.121A1.976 1.976 0 1011.24.514a1.972 1.972 0 10-1.317 3.438 1.953 1.953 0 00.659-.121v2.843h1.317zm.659-2.513a.659.659 0 11-.659.659.659.659 0 01.659-.659zM9.923 2.634a.659.659 0 11.659-.659.659.659 0 01-.659.659z" fill="#6c6d6e"/><path data-name="Path 577" d="M4.61 15.894a3.293 3.293 0 103.293 3.293 3.3 3.3 0 00-3.293-3.293zm0 3.951a.659.659 0 11.659-.659.659.659 0 01-.659.659z" fill="#6c6d6e"/><path data-name="Path 578" d="M17.87 15.894a3.293 3.293 0 103.293 3.293 3.3 3.3 0 00-3.293-3.293zm0 3.951a.659.659 0 11.659-.659.659.659 0 01-.659.659z" fill="#6c6d6e"/><path data-name="Path 579" d="M3.951 9.967v.659h6.63V6.674H7.244a3.294 3.294 0 00-3.293 3.293z" fill="#6c6d6e"/><path data-name="Path 580" d="M18.528 10.625v-.659a3.294 3.294 0 00-3.293-3.292h-3.337v3.951z" fill="#6c6d6e"/><path data-name="Path 581" d="M0 16.552v2.634a4.61 4.61 0 119.22 0 4.551 4.551 0 01-.067.659h1.428v-7.903H4.61A4.615 4.615 0 000 16.552z" fill="#6c6d6e"/><path data-name="Path 582" d="M17.869 11.942h-5.971v7.9h1.428a4.556 4.556 0 01-.067-.659 4.61 4.61 0 119.22 0v-2.631a4.615 4.615 0 00-4.61-4.61z" fill="#6c6d6e"/></svg>