<svg data-name="Group 426" xmlns="http://www.w3.org/2000/svg" width="27.102" height="22.221"><path data-name="Path 585" d="M24.683 19.354V0l-.738.062a28.4 28.4 0 00-8.609 2.1l-1.3.538v19.278l.947-.393a29.545 29.545 0 018.9-2.165zm0 0" fill="#6c6d6e"/><path data-name="Path 586" d="M27.102 2.864H25.65V19.8a.484.484 0 01-.444.484l-1.239.1q-.537.044-1.07.11c-.115.014-.23.032-.345.048-.24.032-.479.064-.717.1-.139.022-.277.048-.415.073-.213.037-.427.074-.64.117-.145.029-.29.062-.439.093-.2.043-.405.087-.607.135-.151.036-.3.074-.452.112-.2.048-.391.1-.586.155-.152.042-.3.086-.454.13a25.63 25.63 0 00-.575.176l-.449.145-.572.2-.439.161-.2.078h11.092zm0 0" fill="#6c6d6e"/><path data-name="Path 587" d="M3.158.062L2.42 0v19.356l.859.073a29.346 29.346 0 018.9 2.178l.893.371V2.7l-1.3-.539a28.4 28.4 0 00-8.61-2.1zm0 0" fill="#6c6d6e"/><path data-name="Path 588" d="M0 2.864v19.355h11.1l-.179-.071c-.138-.053-.278-.1-.418-.154-.2-.071-.393-.141-.591-.207q-.215-.073-.431-.141-.295-.1-.591-.182c-.145-.043-.29-.085-.436-.126-.2-.055-.4-.107-.6-.159-.145-.037-.29-.075-.439-.109-.2-.048-.407-.093-.61-.137-.145-.031-.29-.063-.436-.092-.211-.042-.423-.079-.635-.116l-.417-.073a30.219 30.219 0 00-.7-.1c-.119-.016-.236-.035-.355-.048q-.532-.064-1.065-.11l-1.3-.11a.484.484 0 01-.443-.484V2.864zm0 0" fill="#6c6d6e"/></svg>