<svg data-name="Group 297" xmlns="http://www.w3.org/2000/svg" width="19.119" height="22.555"><path data-name="Path 546" d="M10.15 1.4h.838v.371a.471.471 0 00.47.47h2.988a.47.47 0 00.47-.47V1.4h.838v2.8h.564V1.123a.282.282 0 00-.282-.282h-1.12V.47a.47.47 0 00-.47-.47h-2.988a.471.471 0 00-.47.47v.371h-1.12a.282.282 0 00-.282.282V4.2h.564z" fill="#6c6d6e"/><path data-name="Path 547" d="M.603 19.463h3.625v-.707a.282.282 0 01.282-.282h2a.282.282 0 01.282.282v.707h3.625a.626.626 0 00.6-.646v-3.942a.626.626 0 00-.6-.646H.603a.626.626 0 00-.6.646v3.941a.626.626 0 00.6.647z" fill="#6c6d6e"/><path data-name="Path 548" d="M11.023 21.909v-2.056a1.129 1.129 0 01-.6.174H6.795v.467a1.284 1.284 0 01-2.567 0v-.467H.603a1.129 1.129 0 01-.6-.174v2.056a.626.626 0 00.6.646h9.818a.626.626 0 00.602-.646z" fill="#6c6d6e"/><path data-name="Path 549" d="M5.512 21.215a.721.721 0 00.72-.72v-1.457h-1.44v1.457a.721.721 0 00.72.72z" fill="#6c6d6e"/><path data-name="Path 550" d="M9.588 6.591h6.729a.279.279 0 01.279.279v2.243a.279.279 0 01-.279.279H9.588a.279.279 0 01-.279-.279V6.87a.279.279 0 01.279-.279z" fill="#6c6d6e"/><path data-name="Path 551" d="M18.28 4.483H7.627a.841.841 0 00-.84.84v6.521h.1a1.354 1.354 0 011.331 1.374v.445h.532v-1.33a1.405 1.405 0 011.4-1.4h5.608a1.4 1.4 0 011.4 1.4v8.41h1.12a.841.841 0 00.84-.84V5.323a.841.841 0 00-.838-.84zm-1.12 4.625a.844.844 0 01-.843.843H9.588a.844.844 0 01-.843-.843V6.865a.844.844 0 01.843-.843h6.729a.844.844 0 01.843.843z" fill="#6c6d6e"/><path data-name="Path 552" d="M15.756 11.497h-5.609a.841.841 0 00-.84.84v1.33h1.111a1.19 1.19 0 011.166 1.209v5.871h5.009v-8.41a.84.84 0 00-.837-.84z" fill="#6c6d6e"/><path data-name="Path 553" d="M3.538 13.222a.626.626 0 01.6-.645H6.88a.626.626 0 01.6.645v.726h.564v-.726a1.19 1.19 0 00-1.166-1.209H4.136a1.19 1.19 0 00-1.166 1.209v.726h.564z" fill="#6c6d6e"/></svg>