<svg data-name="Group 296" xmlns="http://www.w3.org/2000/svg" width="22.766" height="20.542"><path data-name="Path 543" d="M11.376 1.894a6.675 6.675 0 00-10.264 8.422h4.907l.873-1.455a.667.667 0 011.134-.015l1.841 2.894 2.684-5.667a.667.667 0 011.19-.031l2.3 4.273h5.6c4.146-6.481-4.048-13.863-10.264-8.427z" fill="#6c6d6e"/><path data-name="Path 544" d="M15.057 11.299l-1.864-3.463-2.637 5.566a.667.667 0 01-1.165.073l-1.91-3-.512.853a.667.667 0 01-.572.324h-4.23c.133.139-.574-.566 8.739 8.7a.667.667 0 00.941 0c9.169-9.122 8.606-8.559 8.739-8.7h-4.942a.667.667 0 01-.587-.353z" fill="#6c6d6e"/></svg>