<svg data-name="Group 298" xmlns="http://www.w3.org/2000/svg" width="22.479" height="22.479"><g data-name="Group 236"><g data-name="Group 235"><path data-name="Path 554" d="M3.88 18.247v3.574a.659.659 0 00.659.659h13.4a.659.659 0 00.659-.659v-3.574z" fill="#6c6d6e"/></g></g><g data-name="Group 238"><g data-name="Group 237"><path data-name="Path 555" d="M16.53 0a5.95 5.95 0 00-2.645.621 5.945 5.945 0 00-5.291 0A5.949 5.949 0 103.88 11.527v5.4H18.6v-5.4A5.949 5.949 0 0016.53 0zM9.782 13.356a.659.659 0 11-1.317 0v-1.411a.659.659 0 011.317 0zm4.232 0a.659.659 0 11-1.317 0v-1.411a.659.659 0 011.317 0z" fill="#6c6d6e"/></g></g></svg>