<svg data-name="Group 306" xmlns="http://www.w3.org/2000/svg" width="32.607" height="21.416"><path data-name="Path 597" d="M32.567 18.265a.166.166 0 00-.125-.058H.165a.166.166 0 00-.164.19c0 .03.492 3.019 4.27 3.019h24.064c3.778 0 4.265-2.989 4.27-3.019a.168.168 0 00-.038-.132zm-13.836 2.1h-4.855v-1.112h4.855z" fill="#6c6d6e"/><path data-name="Path 598" d="M3.518 17.045h25.571a.67.67 0 00.67-.67V.67a.67.67 0 00-.67-.67H3.518a.67.67 0 00-.67.67v15.705a.67.67 0 00.67.67zm1.674-14.7h22.222v12.356H5.192z" fill="#6c6d6e"/></svg>