<svg data-name="Group 299" xmlns="http://www.w3.org/2000/svg" width="19.758" height="22.479"><path data-name="Path 556" d="M19.758 8.561a5.926 5.926 0 00-2.631-4.924 5.933 5.933 0 00-4.669-.841 7.2 7.2 0 01.713 3.132 11.057 11.057 0 01-3.577 7.763 5.854 5.854 0 003.47 2.687l-1.08 1.728h1.128a1.786 1.786 0 00.446 2 2.958 2.958 0 00.4.323 2.813 2.813 0 011.063 2.042h1.317a4.062 4.062 0 00-1.617-3.116 1.867 1.867 0 01-.23-.181.5.5 0 01-.2-.422 1.275 1.275 0 01.365-.65h1.019l-1.08-1.728c2.157-.459 3.768-2.729 4.552-4.8a8.791 8.791 0 00.611-3.013z" fill="#6c6d6e"/><path data-name="Path 557" d="M11.854 5.927A5.927 5.927 0 000 5.927c0 2.964 2.193 7.19 5.161 7.821l-1.08 1.728h.661a2.956 2.956 0 00-.628 1.827 1.656 1.656 0 00.8 1.293c.4.258.293.778-.093 1.846a4.258 4.258 0 00-.338 1.351H5.8c0-.434.62-1.553.68-2.53a1.852 1.852 0 00-.848-1.772.353.353 0 01-.2-.287 3.224 3.224 0 011-1.73H7.78L6.7 13.746c2.966-.63 5.154-4.863 5.154-7.819z" fill="#6c6d6e"/></svg>