<svg xmlns="http://www.w3.org/2000/svg" width="35.533" height="43.654" viewBox="0 0 35.533 43.654">
  <g id="Group_11" data-name="Group 11" transform="translate(185 709.695)">
    <path id="Path_32" data-name="Path 32" d="M-173.383-491.608h-.49a.783.783,0,0,0-.093-.017,4.286,4.286,0,0,1-1.438-.359,6.508,6.508,0,0,1-1.776-1.2,16.892,16.892,0,0,1-2.092-2.382,29.525,29.525,0,0,1-2.093-3.043,27.021,27.021,0,0,1-3.6-11.795q-.019-.291-.038-.583v-1.236c.005-.042.014-.084.016-.125a16.474,16.474,0,0,1,.327-2.757,13.354,13.354,0,0,1,1.616-4.223,10.983,10.983,0,0,1,3.363-3.552,10.161,10.161,0,0,1,4.639-1.67,8.093,8.093,0,0,1,2.594.131,15.936,15.936,0,0,1,2.433.8,19.282,19.282,0,0,0,2.1.769,3.262,3.262,0,0,0,1.443.1,8.873,8.873,0,0,0,1.524-.464c.893-.333,1.782-.682,2.683-.991a9.322,9.322,0,0,1,2.733-.5,11.332,11.332,0,0,1,2.876.273,9.8,9.8,0,0,1,5.623,3.47c.151.187.291.382.44.578-.05.035-.084.058-.118.083-.335.245-.682.476-1,.739a9.776,9.776,0,0,0-2.944,3.968,9.7,9.7,0,0,0-.547,5.064,8.855,8.855,0,0,0,1.376,3.633,10.068,10.068,0,0,0,3.634,3.307c.235.129.486.23.729.344v.064a.206.206,0,0,0-.02.036,22.917,22.917,0,0,1-1.662,3.934,28.732,28.732,0,0,1-2.51,3.836,13.765,13.765,0,0,1-2.065,2.276,5.855,5.855,0,0,1-2.332,1.279,5.741,5.741,0,0,1-2.855-.055,11.146,11.146,0,0,1-1.848-.7,8.692,8.692,0,0,0-3.284-.811,8.164,8.164,0,0,0-3.018.425c-.655.231-1.294.507-1.938.767a7.523,7.523,0,0,1-1.878.531C-173.045-491.644-173.214-491.627-173.383-491.608Z" transform="translate(0 -174.433)" fill="#fff"/>
    <path id="Path_33" data-name="Path 33" d="M132.346-709.7c.023.371.07.743.064,1.114a8.664,8.664,0,0,1-.7,3.193,9.771,9.771,0,0,1-2.455,3.543,8.686,8.686,0,0,1-3.839,2.07,4.6,4.6,0,0,1-1.659.12c-.168-.021-.167-.019-.19-.187a6.363,6.363,0,0,1,.29-2.827,9.932,9.932,0,0,1,4.962-5.987,8.932,8.932,0,0,1,2.416-.9c.267-.055.54-.083.809-.124.031,0,.061-.013.092-.02Z" transform="translate(-290.915)" fill="#fff"/>
  </g>
</svg>
