<svg xmlns="http://www.w3.org/2000/svg" width="280.078" height="133.168"><g data-name="Group 416" opacity=".21" fill="#bbb"><path data-name="Path 306" d="M20.317 122.987A10.159 10.159 0 000 123.029a10.159 10.159 0 1020.317-.042z"/><path data-name="Path 307" d="M60.562 46.185a10.159 10.159 0 10-10.156-10.23 10.052 10.052 0 0010.156 10.23z"/><path data-name="Path 308" d="M269.878 46.185a10.16 10.16 0 10-10.11-10.274 10.044 10.044 0 0010.11 10.274z"/><path data-name="Path 310" d="M114.94 20.319a10.159 10.159 0 10-10.133-10.031 10.058 10.058 0 0010.133 10.031z"/><path data-name="Path 313" d="M50.397 93.626a9.961 9.961 0 0010.151 10.132 10.021 10.021 0 0010.149-10.167 10.056 10.056 0 00-10.187-10.1 9.987 9.987 0 00-10.113 10.135z"/><path data-name="Path 314" d="M104.802 67.737a10.066 10.066 0 0010.127 10.173 10.1 10.1 0 0010.173-10.169 10.061 10.061 0 00-10.167-10.118 9.986 9.986 0 00-10.133 10.114z"/><path data-name="Path 315" d="M229.683 122.898A10.1 10.1 0 00219.1 112.85a10.163 10.163 0 1010.583 10.048z"/><path data-name="Path 316" d="M259.765 93.626a9.964 9.964 0 0010.153 10.133 10.031 10.031 0 0010.147-10.175 10.054 10.054 0 00-10.19-10.093 9.985 9.985 0 00-10.11 10.135z"/><path data-name="Path 322" d="M104.806 123.034a10.081 10.081 0 0010.155 10.134 10.158 10.158 0 10-.056-20.316 10.078 10.078 0 00-10.099 10.182z"/><path data-name="Path 323" d="M229.686 67.628a10.153 10.153 0 10-10.14 10.284 10.159 10.159 0 0010.14-10.284z"/><path data-name="Path 324" d="M229.682 10.194a10.158 10.158 0 10-10.164 10.125 10.149 10.149 0 0010.164-10.125z"/><path data-name="Path 325" d="M165.12 46.185a10.16 10.16 0 00.033-20.319 10.16 10.16 0 10-.032 20.319z"/><path data-name="Path 326" d="M175.29 93.555a10.021 10.021 0 00-10.305-10.064 10.042 10.042 0 00-10 10.165 10 10 0 0010.1 10.1 10 10 0 0010.205-10.201z"/><path data-name="Path 327" d="M20.317 10.094a10.158 10.158 0 10-10.17 10.225 10.07 10.07 0 0010.17-10.225z"/><path data-name="Path 328" d="M20.317 67.639a10.153 10.153 0 10-10.145 10.273 10.151 10.151 0 0010.145-10.273z"/></g></svg>