<svg id="fountain-pen-of-large-size" xmlns="http://www.w3.org/2000/svg" width="15.777" height="15.776" viewBox="0 0 15.777 15.776">
  <path id="Path_630" data-name="Path 630" d="M.232,14.9l.644.644c-.422.221-.709.292-.822.179S.011,15.324.232,14.9Zm-.155-.5,1.3,1.3a11.5,11.5,0,0,0,2.651-1.538L1.614,11.747A11.5,11.5,0,0,0,.077,14.4ZM6.092,6.885l2.8,2.8c-.423.474-.876.955-1.357,1.436a31.5,31.5,0,0,1-3.2,2.818L1.838,11.447a31.528,31.528,0,0,1,2.818-3.2C5.137,7.761,5.618,7.308,6.092,6.885ZM4.466,12.7c-.187.143-.006.467.183.322A33.538,33.538,0,0,0,8.043,9.8a.185.185,0,0,0-.262-.262A32.954,32.954,0,0,1,4.466,12.7Zm10.663-8.92L9.878,9.028a2.205,2.205,0,0,1-.665.455L6.3,6.566A2.2,2.2,0,0,1,6.75,5.9L11.3,1.347l-.763.225L6.62,5.493A.278.278,0,0,1,6.227,5.1L10.2,1.129a.277.277,0,0,1,.118-.07L12.144.521a2.211,2.211,0,0,1,2.985,3.255Zm-.7-2.849c-.187-.143-.451.117-.262.262a1.517,1.517,0,0,1,.33,1.9c-.108.212.213.4.322.183A1.889,1.889,0,0,0,14.426.927Z" transform="translate(0 -0.002)" fill="#00b3f6"/>
</svg>
