<svg id="clock" xmlns="http://www.w3.org/2000/svg" width="18.611" height="18.611" viewBox="0 0 18.611 18.611">
  <path id="Path_609" data-name="Path 609" d="M16.653,4.9a.775.775,0,0,0-.36,1.036,7.676,7.676,0,0,1,.768,3.373A7.754,7.754,0,1,1,9.306,1.551,7.661,7.661,0,0,1,14.12,3.224a.775.775,0,1,0,.965-1.214,9.307,9.307,0,1,0,3.526,7.3,9.211,9.211,0,0,0-.923-4.048.775.775,0,0,0-1.036-.36Zm0,0" transform="translate(0 0)" fill="#00b3f6"/>
  <path id="Path_610" data-name="Path 610" d="M176.775,64a.776.776,0,0,0-.775.775V70.2a.776.776,0,0,0,.775.775h3.877a.775.775,0,0,0,0-1.551h-3.1V64.775A.776.776,0,0,0,176.775,64Zm0,0" transform="translate(-167.47 -60.898)" fill="#00b3f6"/>
</svg>
