<svg xmlns="http://www.w3.org/2000/svg" width="341.261" height="193.617"><g data-name="Group 110" opacity=".21" fill="#bbb"><path data-name="Path 306" d="M20.673 183.258a10.336 10.336 0 00-20.672.043 10.336 10.336 0 1020.672-.043z"/><path data-name="Path 307" d="M72.542 60.314a10.337 10.337 0 10-10.334-10.408 10.228 10.228 0 0010.334 10.408z"/><path data-name="Path 308" d="M330.881 60.315a10.337 10.337 0 10-10.288-10.454 10.22 10.22 0 0010.288 10.454z"/><path data-name="Path 310" d="M139.659 20.675a10.337 10.337 0 10-10.31-10.206 10.234 10.234 0 0010.31 10.206z"/><path data-name="Path 313" d="M62.196 138.244a10.136 10.136 0 0010.329 10.309 10.2 10.2 0 0010.327-10.349 10.232 10.232 0 00-10.365-10.273 10.162 10.162 0 00-10.291 10.313z"/><path data-name="Path 314" d="M129.339 98.591a10.243 10.243 0 0010.306 10.351A10.279 10.279 0 00149.996 98.6a10.238 10.238 0 00-10.345-10.3 10.161 10.161 0 00-10.312 10.291z"/><path data-name="Path 315" d="M279.065 183.167a10.281 10.281 0 00-10.768-10.224 10.341 10.341 0 1010.768 10.224z"/><path data-name="Path 316" d="M320.593 138.244a10.139 10.139 0 0010.33 10.311 10.207 10.207 0 0010.324-10.353 10.23 10.23 0 00-10.368-10.27 10.16 10.16 0 00-10.286 10.312z"/><path data-name="Path 322" d="M129.347 183.306a10.257 10.257 0 0010.333 10.311 10.336 10.336 0 10-.057-20.672 10.254 10.254 0 00-10.276 10.361z"/><path data-name="Path 323" d="M279.069 98.472a10.331 10.331 0 10-10.317 10.464 10.337 10.337 0 0010.317-10.464z"/><path data-name="Path 324" d="M279.064 10.372a10.336 10.336 0 10-10.342 10.3 10.327 10.327 0 0010.342-10.3z"/><path data-name="Path 325" d="M201.585 60.315a10.338 10.338 0 00.033-20.675 10.338 10.338 0 10-.033 20.675z"/><path data-name="Path 326" d="M211.936 138.172a10.2 10.2 0 00-10.486-10.241 10.218 10.218 0 00-10.174 10.343 10.175 10.175 0 0010.281 10.279 10.18 10.18 0 0010.379-10.381z"/><path data-name="Path 327" d="M20.672 10.271a10.336 10.336 0 10-10.348 10.4 10.246 10.246 0 0010.348-10.4z"/><path data-name="Path 328" d="M20.673 98.484a10.331 10.331 0 10-10.323 10.453 10.328 10.328 0 0010.323-10.453z"/></g></svg>