<svg xmlns="http://www.w3.org/2000/svg" width="5.185" height="10.6"><g data-name="Group 290"><g data-name="Group 289" fill="#817f7f"><path data-name="Path 593" d="M5.124 7.523l-2.405 3a.142.142 0 01-.232.027.193.193 0 01-.021-.027l-2.405-3a.291.291 0 01-.01-.342.175.175 0 01.137-.078h1.139v-3.89a.335.335 0 01.253-.307h2.026c.1 0 .127.161.127.307v3.893h1.266a.223.223 0 01.187.245.276.276 0 01-.062.172z"/><path data-name="Path 594" d="M3.605 2.421H1.579a.249.249 0 010-.484h2.026a.249.249 0 010 .484z"/><path data-name="Path 595" d="M3.605 1.452H1.579a.249.249 0 010-.484h2.026a.249.249 0 010 .484z"/><path data-name="Path 596" d="M3.605.485H1.579a.249.249 0 010-.484h2.026a.249.249 0 010 .484z"/></g></g></svg>