<svg xmlns="http://www.w3.org/2000/svg" width="41.88" height="41.654" viewBox="0 0 41.88 41.654">
  <path id="Path_31" data-name="Path 31" d="M.705,69.424a16.733,16.733,0,0,0-.383-3.847,20.527,20.527,0,0,0-7.48-12.24A20.284,20.284,0,0,0-23.79,49.042a20.4,20.4,0,0,0-12.819,7.619,20.418,20.418,0,0,0-4.345,9.98,14.013,14.013,0,0,0-.194,2.483,19.845,19.845,0,0,0,.5,5.241,20.619,20.619,0,0,0,2.276,5.765A20.9,20.9,0,0,0-33.2,86.119a20.886,20.886,0,0,0,8.336,4.024,6.377,6.377,0,0,0,1.25.223.6.6,0,0,1-.105-.473q0-6.991,0-13.982c0-.421,0-.421-.436-.421-1.493,0-2.987-.005-4.48.005-.239,0-.325-.043-.323-.306q.018-2.616,0-5.232c0-.23.05-.3.293-.3,1.483.012,2.967.006,4.45.006.517,0,.517,0,.483-.538,0-1.342.013-2.684.014-4.026a9.091,9.091,0,0,1,1.23-4.866,6.609,6.609,0,0,1,3.524-2.818,10.539,10.539,0,0,1,4.233-.52c1.193.074,2.368.254,3.552.384.2.022.281.1.279.323q-.018,2.389,0,4.779c0,.252-.069.31-.315.313a30.523,30.523,0,0,0-3.212.054,2.272,2.272,0,0,0-2.243,2.2c-.129,1.487-.047,2.982-.036,4.473-.063.222.06.241.239.24q2.5-.007,4.992,0h.3c.05.1-.01.163-.021.231-.278,1.775-.561,3.55-.829,5.327-.033.218-.106.275-.32.274-1.353-.01-2.707,0-4.06-.012-.275,0-.325.079-.324.336q.011,7.037,0,14.075a.845.845,0,0,1-.079.476c.138-.012.227-.013.314-.029a21.111,21.111,0,0,0,9.222-4.217A18.067,18.067,0,0,0-4.634,83.6c.49-.58.991-1.153,1.431-1.769A23.326,23.326,0,0,0-1,77.915,19.455,19.455,0,0,0,.4,73.3c.1-.552.147-1.114.2-1.675A16.157,16.157,0,0,0,.705,69.424Z" transform="translate(41.165 -48.715)" fill="#0a82ed"/>
</svg>
