<svg xmlns="http://www.w3.org/2000/svg" width="40.589" height="41.654" viewBox="0 0 40.589 41.654">
  <g id="Group_10" data-name="Group 10" transform="translate(-204.563 -293.273)">
    <path id="Path_25" data-name="Path 25" d="M215.1,304.928a19.884,19.884,0,0,1,13.826-11.051,20.227,20.227,0,0,1,17.821,4.014c.561.439.726.671.106,1.254-1.713,1.611-3.352,3.3-5,4.983-.309.315-.489.388-.887.088a12.237,12.237,0,0,0-18.811,5.739,1.439,1.439,0,0,1-.155.25Z" transform="translate(-8.41)" fill="#e94335"/>
    <path id="Path_26" data-name="Path 26" d="M222.016,415.839a12.6,12.6,0,0,0,7.32,7.577,13.517,13.517,0,0,0,4.831.811,13.746,13.746,0,0,0,6.536-1.765l6.538,5.121a18.782,18.782,0,0,1-10.958,5.013,20.727,20.727,0,0,1-20.96-10.955,4.8,4.8,0,0,1-.212-.548Z" transform="translate(-8.418 -97.826)" fill="#34a853"/>
    <path id="Path_27" data-name="Path 27" d="M321.313,397.213l-6.538-5.121a10.17,10.17,0,0,0,4.009-5.35c.21-.681.184-.988-.7-.978-3.311.04-6.622-.01-9.934-.026l-.231-.242q0-3.729,0-7.458l.217-.2q9.265-.021,18.53-.048c.465,0,.634.168.7.623C328.375,385.656,326.726,392.038,321.313,397.213Z" transform="translate(-82.491 -67.455)" fill="#4385f3"/>
    <path id="Path_28" data-name="Path 28" d="M213.6,364.1l-6.906,5.254a20.189,20.189,0,0,1-1.949-12.033,17.328,17.328,0,0,1,1.947-6.306l6.9,5.278A14.214,14.214,0,0,0,213.6,364.1Z" transform="translate(0 -46.085)" fill="#fabb06"/>
    <path id="Path_29" data-name="Path 29" d="M308.132,378.025l-.217.2C307.909,378.075,307.991,378.018,308.132,378.025Z" transform="translate(-82.49 -67.644)" fill="#357ef3"/>
    <path id="Path_30" data-name="Path 30" d="M307.923,415.976l.231.242C307.991,416.219,307.92,416.132,307.923,415.976Z" transform="translate(-82.496 -97.935)" fill="#357ef3"/>
  </g>
</svg>
