<svg xmlns="http://www.w3.org/2000/svg" width="16.777" height="15.579" viewBox="0 0 16.777 15.579">
  <path id="Icon_ionic-ios-star" data-name="Icon ionic-ios-star" d="M18.39,8.768H12.882l-1.674-5a.607.607,0,0,0-1.138,0l-1.674,5H2.849a.6.6,0,0,0-.6.6.44.44,0,0,0,.011.1.576.576,0,0,0,.251.423L7.04,13.082,5.3,18.133a.6.6,0,0,0,.206.674.579.579,0,0,0,.337.146.734.734,0,0,0,.374-.135l4.419-3.149,4.419,3.149a.7.7,0,0,0,.374.135.538.538,0,0,0,.333-.146.594.594,0,0,0,.206-.674l-1.738-5.052,4.49-3.221.109-.094a.573.573,0,0,0-.442-1Z" transform="translate(-2.25 -3.375)" fill="#ffc108"/>
</svg>
