<svg id="plus_1_" data-name="plus (1)" xmlns="http://www.w3.org/2000/svg" width="14.271" height="14.271" viewBox="0 0 14.271 14.271">
  <path id="Path_622" data-name="Path 622" d="M7.135,0a7.135,7.135,0,1,0,7.135,7.135A7.143,7.143,0,0,0,7.135,0Zm0,0" fill="#00b3f6"/>
  <path id="Path_623" data-name="Path 623" d="M129.506,126.979h-2.527v2.527a.595.595,0,1,1-1.189,0v-2.527h-2.527a.595.595,0,0,1,0-1.189h2.527v-2.527a.595.595,0,0,1,1.189,0v2.527h2.527a.595.595,0,1,1,0,1.189Zm0,0" transform="translate(-119.249 -119.249)" fill="#fafafa"/>
</svg>
