<svg xmlns="http://www.w3.org/2000/svg" width="289.058" height="45.517"><g data-name="Group 2"><path data-name="Path 24" d="M88.934 42.313h-5.489a1.085 1.085 0 01-1.111-1.051v-16.1H66.561v16.1a1.086 1.086 0 01-1.111 1.051h-5.492a1.087 1.087 0 01-1.107-1.051V4.228a1.039 1.039 0 011.107-1h5.492a1.039 1.039 0 011.111 1V18.74h15.771V4.228a1.037 1.037 0 011.111-1h5.489a1.039 1.039 0 011.112 1v37.035a1.083 1.083 0 01-1.11 1.05"/><path data-name="Path 25" d="M113.915 42.73c-9.16 0-15.819-4.839-15.819-16.412v-7.1c0-11.572 6.659-16.41 15.819-16.41s15.825 4.838 15.825 16.41v7.1c0 11.574-6.663 16.412-15.825 16.412m8.049-23.511c0-6.94-2.606-10.046-8.049-10.046s-8.046 3.106-8.046 10.046v7.1c0 6.948 2.607 10.047 8.046 10.047s8.049-3.1 8.049-10.047v-7.1z"/><path data-name="Path 26" d="M161.324 9.329h-9.718v31.934a1.089 1.089 0 01-1.112 1.051h-5.488a1.089 1.089 0 01-1.111-1.051V9.329h-9.714a1 1 0 01-1.113-.946V4.227a1.039 1.039 0 011.113-.994h27.146a1.04 1.04 0 011.111.994v4.156a1 1 0 01-1.111.946"/><path data-name="Path 27" d="M179.206 42.73a44.841 44.841 0 01-9.83-.944 1.162 1.162 0 01-1.058-1.053v-3.784a1.03 1.03 0 011.058-1.005h.109c2.225.266 7.775.525 9.83.525 4.937 0 6.436-1.681 6.436-4.735 0-2.046-1.047-3.1-4.714-5.15l-7.331-4.154c-5.166-2.9-6.551-5.947-6.551-9.629 0-5.784 3.553-9.992 13.88-9.992a64.769 64.769 0 0110.652.949 1.091 1.091 0 011.007 1v3.891a.926.926 0 01-.948.947h-.114c-3.662-.313-7.323-.524-10.931-.524-4.109 0-5.832 1.364-5.832 3.733 0 1.74.944 2.792 4.553 4.68l6.664 3.529c6.107 3.2 7.721 6.569 7.721 10.725 0 5.316-3.5 10.994-14.6 10.994"/><path data-name="Path 28" d="M230.271 42.313h-5.884a1.157 1.157 0 01-1.055-.9l-2.551-9.995h-12.775l-2.553 9.995a1.159 1.159 0 01-1.057.9h-5.888a.933.933 0 01-1-.9 1.9 1.9 0 00.063-.261l9.1-32.982c1.329-4.9 5.321-5.366 7.711-5.366s6.389.47 7.72 5.366l9.1 32.982a2.24 2.24 0 00.053.261.929.929 0 01-1 .9m-14.99-32.511c-.168-.628-.331-.841-.888-.841s-.72.213-.886.841l-4 15.625h9.776z"/><path data-name="Path 29" d="M258.471 41.994a63.132 63.132 0 01-9.438.736c-7.215 0-12.819-1.841-12.819-10.787V4.28a1.083 1.083 0 011.111-1.046h5.493a1.081 1.081 0 011.106 1.046v27.66c0 3.478 1.113 4.526 4.33 4.526h10.217a1.088 1.088 0 011.107 1.053v3.367c0 .735-.273.948-1.107 1.1"/><path data-name="Path 30" d="M287.948 41.994a55.338 55.338 0 01-10.547.736c-7.22 0-12.822-1.841-12.822-10.787V13.589c0-8.941 5.6-10.781 12.822-10.781a55.1 55.1 0 0110.547.735c.835.106 1.11.367 1.11 1.1v3.364a1.087 1.087 0 01-1.11 1.056h-11.327c-3.218 0-4.384 1.051-4.384 4.521v5.686h15.046a1.084 1.084 0 011.106 1.054v3.784a1.082 1.082 0 01-1.106 1.055h-15.046v6.777c0 3.478 1.166 4.526 4.384 4.526h11.327a1.088 1.088 0 011.11 1.053v3.367c0 .736-.275 1-1.11 1.106"/></g><g data-name="Group 3" fill="#f8f8f8" fill-rule="evenodd"><path data-name="Path 31" d="M10.879 6.931a16.682 16.682 0 00.968 3 .316.316 0 01.02.23 11.2 11.2 0 01-1.9 3.146c-.006.007-.017.015-.024.024l1.946 1.509a4.9 4.9 0 001.311-2.351c.054.076.081.119.11.162a12.57 12.57 0 002.968 3.229 5.971 5.971 0 002.666 1.194 2.681 2.681 0 001.139-.051c-.1-.064-.179-.109-.251-.157-.188-.128-.378-.247-.553-.388a7.958 7.958 0 01-1.61-1.786q-1.476-2.188-2.9-4.409a53.462 53.462 0 00-3.315-4.73c-.247-.3-.5-.6-.754-.907l-.09-.07a9.506 9.506 0 00.271 2.356"/><path data-name="Path 32" d="M4.272 14.885a18.935 18.935 0 013.251.252.357.357 0 00.239-.028 11.483 11.483 0 002.765-2.478.146.146 0 01.02-.025l1.945 1.5a5.043 5.043 0 01-2.09 1.744c.09.033.138.052.187.067a13.072 13.072 0 013.917 2.095 5.7 5.7 0 011.792 2.249 2.389 2.389 0 01.193 1.083c-.088-.08-.148-.145-.213-.2-.169-.15-.332-.305-.511-.438a8.371 8.371 0 00-2.161-1.126q-2.538-.909-5.094-1.77a55.16 55.16 0 01-5.506-2.089c-.363-.165-.721-.341-1.082-.512l-.096-.069a10.737 10.737 0 012.444-.255"/><path data-name="Path 33" d="M4.906 8.54a5.025 5.025 0 01.428-.283 2.219 2.219 0 012.728.418 2.034 2.034 0 01.036 2.72 2.232 2.232 0 01-2.715.5 2.064 2.064 0 01-.867-2.826.6.6 0 00.047-.119q.168-.205.343-.411"/><path data-name="Path 34" d="M2.425 22.64a18.15 18.15 0 003.036 1.144.328.328 0 01.2.128 11.018 11.018 0 011.363 3.4.125.125 0 00.005.032l2.435-.526a4.861 4.861 0 00-1.088-2.455c.1.008.148.014.2.019a13.3 13.3 0 004.47-.223 5.946 5.946 0 002.631-1.264 2.484 2.484 0 00.669-.891c-.117.039-.2.068-.284.092-.22.062-.435.131-.66.175a8.469 8.469 0 01-2.451.1c-1.8-.169-3.592-.361-5.384-.564a57.939 57.939 0 00-5.9-.453h-1.2l-.112.022a10.315 10.315 0 002.07 1.264"/><path data-name="Path 35" d="M4.748 32.581a17.77 17.77 0 012.234-2.291.341.341 0 00.125-.2 10.848 10.848 0 00-.283-3.63.282.282 0 01-.007-.031l2.432-.528a4.736 4.736 0 01.109 2.665c.084-.047.129-.073.172-.1a13.165 13.165 0 014.136-1.647 6.1 6.1 0 012.941.052 2.572 2.572 0 011 .532c-.12.015-.209.019-.3.034-.227.032-.453.06-.674.112a8.359 8.359 0 00-2.261.925q-2.319 1.344-4.612 2.734a54.382 54.382 0 01-5.128 2.851c-.361.171-.728.33-1.09.5l-.115.023a9.976 9.976 0 011.318-2"/><path data-name="Path 36" d="M0 28.14a4.577 4.577 0 01.037-.5 2.181 2.181 0 014.269-.119 2.079 2.079 0 01-1.29 2.357 2.208 2.208 0 01-2.83-1.108.579.579 0 00-.067-.11q-.06-.255-.119-.516"/><path data-name="Path 37" d="M9.88 38.811a18.007 18.007 0 002.821-1.571.341.341 0 01.229-.07 11.934 11.934 0 013.6 1.091.173.173 0 00.03.016l1.092-2.164a5.292 5.292 0 00-2.668-.71c.067-.068.1-.1.14-.139a12.415 12.415 0 002.608-3.508 5.5 5.5 0 00.618-2.771 2.443 2.443 0 00-.3-1.06c-.042.112-.069.192-.1.271-.087.2-.164.409-.27.6a7.831 7.831 0 01-1.448 1.91q-1.889 1.875-3.816 3.706a54.469 54.469 0 00-4.048 4.166c-.251.3-.5.607-.75.909l-.051.1a10.41 10.41 0 002.321-.779"/><path data-name="Path 38" d="M19.389 43.263a16.957 16.957 0 01-.465-3.113.323.323 0 00-.081-.217 11.694 11.694 0 00-3.119-2.052.135.135 0 01-.03-.014l1.09-2.163a5.09 5.09 0 012.226 1.58c.015-.092.022-.142.028-.19a12.094 12.094 0 011.245-4.146 5.725 5.725 0 011.878-2.185 2.586 2.586 0 011.053-.421c-.062.1-.115.17-.157.244-.113.191-.232.38-.329.578a7.771 7.771 0 00-.66 2.28 282.19 282.19 0 00-.661 5.183 50.122 50.122 0 01-.889 5.643c-.087.38-.186.755-.277 1.133l-.053.1a9.649 9.649 0 01-.8-2.241"/><path data-name="Path 39" d="M12.831 44.074c-.13-.111-.268-.218-.384-.339a2.031 2.031 0 01-.18-2.658 2.214 2.214 0 012.739-.637 2.072 2.072 0 011.109 2.441 2.189 2.189 0 01-2.665 1.44.668.668 0 00-.132-.018 30.476 30.476 0 01-.489-.23"/><path data-name="Path 40" d="M27.638 43.281a16.585 16.585 0 00.484-3.107.311.311 0 01.086-.217 11.675 11.675 0 013.129-2.033.146.146 0 00.033-.012l-1.073-2.172a5.129 5.129 0 00-2.24 1.568 7.333 7.333 0 01-.027-.192 12.051 12.051 0 00-1.214-4.156 5.7 5.7 0 00-1.862-2.193 2.643 2.643 0 00-1.048-.433c.065.1.113.173.156.248.11.192.229.379.322.581a7.625 7.625 0 01.644 2.282c.228 1.729.431 3.458.623 5.188a51.34 51.34 0 00.851 5.65c.087.376.18.756.269 1.132l.05.1a9.576 9.576 0 00.817-2.236"/><path data-name="Path 41" d="M37.177 38.894a18.453 18.453 0 01-2.813-1.593.363.363 0 00-.226-.075 12 12 0 00-3.606 1.07.11.11 0 01-.031.015l-1.073-2.171a5.224 5.224 0 012.669-.693c-.065-.067-.1-.1-.138-.14a12.509 12.509 0 01-2.583-3.523 5.512 5.512 0 01-.6-2.779 2.4 2.4 0 01.315-1.056c.044.108.066.193.1.271.085.2.162.412.263.608a8.008 8.008 0 001.436 1.921q1.874 1.883 3.787 3.729a53.312 53.312 0 014.019 4.191c.252.3.495.611.743.915l.05.1a10.507 10.507 0 01-2.315-.8"/><path data-name="Path 42" d="M33.743 44.34c-.17.028-.343.065-.514.077a2.161 2.161 0 01-2.267-1.522 2.064 2.064 0 011.195-2.462 2.223 2.223 0 012.67.688 2.051 2.051 0 01-.5 2.906.657.657 0 00-.1.089c-.162.075-.326.151-.493.224"/><path data-name="Path 43" d="M42.339 32.687a17.3 17.3 0 00-2.217-2.3.326.326 0 01-.122-.2 10.848 10.848 0 01.306-3.628.3.3 0 00.009-.032l-2.43-.547a4.762 4.762 0 00-.127 2.666c-.083-.048-.13-.074-.172-.1a13.148 13.148 0 00-4.124-1.677 6.105 6.105 0 00-2.94.036 2.608 2.608 0 00-1 .521c.124.015.21.022.3.037.225.034.451.063.672.119a8.257 8.257 0 012.251.938c1.544.9 3.072 1.833 4.593 2.768a56.022 56.022 0 005.11 2.884c.358.169.724.337 1.085.5l.115.026a9.888 9.888 0 00-1.3-2.011"/><path data-name="Path 44" d="M44.734 22.762a18.755 18.755 0 01-3.046 1.127.35.35 0 00-.2.124 10.916 10.916 0 00-1.382 3.385.08.08 0 01-.01.033l-2.426-.546a4.821 4.821 0 011.1-2.442c-.1.006-.149.009-.2.016a13.386 13.386 0 01-4.467-.253 5.951 5.951 0 01-2.624-1.282 2.436 2.436 0 01-.659-.9c.115.035.2.07.281.093.219.063.437.136.658.181a8.558 8.558 0 002.453.116c1.8-.158 3.594-.337 5.386-.526a55.762 55.762 0 015.9-.413c.4 0 .805.008 1.205.009l.115.027a10.567 10.567 0 01-2.091 1.247"/><path data-name="Path 45" d="M47.006 28.748c-.083.146-.162.3-.258.435a2.21 2.21 0 01-2.647.76 2.07 2.07 0 01-1.251-2.438 2.165 2.165 0 012.223-1.583 2.127 2.127 0 012.046 2.186.585.585 0 00.013.128c-.041.17-.082.341-.126.512"/><path data-name="Path 46" d="M42.926 15a18.39 18.39 0 00-3.25.231.352.352 0 01-.24-.031 11.555 11.555 0 01-2.748-2.495.126.126 0 00-.02-.027l-1.962 1.492a5.076 5.076 0 002.081 1.759c-.09.032-.14.051-.188.067a13.009 13.009 0 00-3.932 2.062 5.689 5.689 0 00-1.8 2.237 2.394 2.394 0 00-.205 1.082c.088-.086.148-.145.216-.2.168-.147.332-.3.515-.433a8.268 8.268 0 012.166-1.111c1.7-.6 3.4-1.172 5.107-1.735a56.764 56.764 0 005.527-2.051c.36-.164.724-.337 1.085-.5l.091-.069a10.433 10.433 0 00-2.442-.273"/><path data-name="Path 47" d="M36.376 7a17.1 17.1 0 01-.989 3 .328.328 0 00-.023.229 11.052 11.052 0 001.881 3.154.105.105 0 01.02.027l-1.959 1.488a4.863 4.863 0 01-1.288-2.358c-.055.077-.085.119-.111.162a12.658 12.658 0 01-2.992 3.208 5.974 5.974 0 01-2.677 1.179 2.621 2.621 0 01-1.138-.063c.1-.065.18-.1.252-.154.188-.125.381-.244.557-.383a8.061 8.061 0 001.625-1.777q1.485-2.179 2.932-4.388a52.291 52.291 0 013.347-4.708c.25-.305.509-.6.761-.9l.094-.069a9.627 9.627 0 01-.292 2.352"/><path data-name="Path 48" d="M42.646 9.022c.065.155.142.309.191.466a2.061 2.061 0 01-1.038 2.47 2.214 2.214 0 01-2.753-.579 2.038 2.038 0 01.1-2.663 2.235 2.235 0 013.05-.179.623.623 0 00.111.071c.111.137.226.274.336.414"/><path data-name="Path 49" d="M28.885 3.502a17.112 17.112 0 00-1.829 2.6.323.323 0 01-.174.157 12.076 12.076 0 01-3.735.531h-.034l-.007 2.408a5.281 5.281 0 002.721-.481 4.09 4.09 0 01-.062.184 11.981 11.981 0 00-.766 4.252 5.514 5.514 0 00.695 2.753 2.526 2.526 0 00.753.827c-.012-.118-.024-.2-.03-.288-.013-.22-.036-.438-.03-.658a7.632 7.632 0 01.442-2.327c.568-1.654 1.16-3.3 1.763-4.939a52.033 52.033 0 001.765-5.449c.09-.375.176-.757.264-1.134v-.112a10.078 10.078 0 00-1.739 1.676"/><path data-name="Path 50" d="M18.317 3.486a17.442 17.442 0 011.822 2.608.354.354 0 00.172.162 12.074 12.074 0 003.733.538.193.193 0 01.034 0v2.4a5.243 5.243 0 01-2.719-.487c.028.089.045.137.063.184a12.053 12.053 0 01.749 4.255 5.509 5.509 0 01-.7 2.754 2.474 2.474 0 01-.758.821c.011-.116.026-.2.032-.286.015-.22.039-.439.034-.658a7.709 7.709 0 00-.434-2.331q-.848-2.479-1.745-4.942a50.579 50.579 0 01-1.745-5.455c-.092-.377-.173-.757-.262-1.135V1.8a10.178 10.178 0 011.731 1.683"/><path data-name="Path 51" d="M23.854.002a5 5 0 01.5.146 2.075 2.075 0 011.363 2.316 2.189 2.189 0 01-4.28-.009A2.107 2.107 0 0123.182.04a.823.823 0 00.126-.039h.546"/></g></svg>