<svg xmlns="http://www.w3.org/2000/svg" width="207.885" height="38.64"><g data-name="Group 905"><g data-name="Group 3" fill-rule="evenodd"><path data-name="Path 31" d="M9.235 5.884a14.161 14.161 0 00.822 2.548.268.268 0 01.017.2 9.5 9.5 0 01-1.614 2.671l-.02.02 1.653 1.278a4.16 4.16 0 001.113-2c.046.065.069.1.093.138a10.671 10.671 0 002.52 2.741 5.068 5.068 0 002.263 1.014 2.276 2.276 0 00.967-.043c-.088-.054-.152-.093-.213-.133-.16-.109-.321-.21-.469-.329a6.756 6.756 0 01-1.363-1.517q-1.253-1.858-2.464-3.743a45.384 45.384 0 00-2.814-4.015c-.21-.257-.427-.514-.64-.77l-.076-.059a8.069 8.069 0 00.23 2" fill="#f07f22"/><path data-name="Path 32" d="M3.63 12.635a16.074 16.074 0 012.76.214.3.3 0 00.2-.024 9.748 9.748 0 002.347-2.1.124.124 0 01.017-.021l1.651 1.277a4.281 4.281 0 01-1.775 1.477c.076.028.117.044.159.057a11.1 11.1 0 013.325 1.775 4.839 4.839 0 011.521 1.909 2.028 2.028 0 01.164.919c-.075-.068-.126-.123-.181-.17-.143-.127-.282-.259-.434-.372a7.107 7.107 0 00-1.834-.956q-2.155-.772-4.324-1.5a46.826 46.826 0 01-4.677-1.775c-.308-.14-.612-.289-.919-.435l-.079-.059a9.115 9.115 0 012.079-.216" fill="#f07f22"/><path data-name="Path 33" d="M4.163 7.247a4.265 4.265 0 01.363-.24 1.884 1.884 0 012.316.355 1.726 1.726 0 01.031 2.309 1.9 1.9 0 01-2.3.425 1.752 1.752 0 01-.736-2.4.511.511 0 00.04-.1q.143-.174.291-.349" fill="#f07f22"/><path data-name="Path 34" d="M2.054 19.219a15.408 15.408 0 002.577.971.278.278 0 01.169.109 9.353 9.353 0 011.157 2.883.106.106 0 000 .027l2.067-.447a4.127 4.127 0 00-.924-2.084l.169.016a11.291 11.291 0 003.795-.189 5.047 5.047 0 002.234-1.073 2.109 2.109 0 00.568-.756c-.1.033-.169.058-.241.078-.187.053-.369.111-.56.149a7.19 7.19 0 01-2.081.085 232.744 232.744 0 01-4.571-.479 49.184 49.184 0 00-5.01-.385H.38l-.1.019a8.757 8.757 0 001.774 1.076" fill="#f4ca14"/><path data-name="Path 35" d="M4.031 27.658a15.085 15.085 0 011.9-1.945.29.29 0 00.106-.168 9.209 9.209 0 00-.24-3.082.239.239 0 01-.006-.026l2.065-.448a4.02 4.02 0 01.093 2.262c.071-.04.11-.062.146-.084a11.176 11.176 0 013.511-1.4 5.176 5.176 0 012.5.044 2.183 2.183 0 01.847.452c-.1.013-.177.016-.25.029-.193.027-.385.051-.572.1a7.1 7.1 0 00-1.919.785q-1.969 1.141-3.915 2.321a46.165 46.165 0 01-4.353 2.42c-.306.145-.618.28-.925.422l-.1.02a8.469 8.469 0 011.119-1.7" fill="#f4ca14"/><path data-name="Path 36" d="M0 23.891a3.886 3.886 0 01.031-.424 1.851 1.851 0 013.622-.105 1.765 1.765 0 01-1.093 2 1.874 1.874 0 01-2.4-.941.491.491 0 00-.054-.087q-.051-.216-.1-.438" fill="#f4ca14"/><path data-name="Path 37" d="M8.387 32.947a15.288 15.288 0 002.395-1.335.289.289 0 01.194-.059 10.132 10.132 0 013.056.926.146.146 0 00.025.014l.927-1.837a4.493 4.493 0 00-2.265-.6c.057-.058.088-.088.119-.118a10.539 10.539 0 002.214-2.978 4.67 4.67 0 00.525-2.352 2.074 2.074 0 00-.258-.9c-.036.1-.059.163-.088.23-.074.171-.139.347-.229.513a6.648 6.648 0 01-1.229 1.621q-1.6 1.592-3.239 3.146a46.24 46.24 0 00-3.436 3.537c-.213.255-.424.515-.637.772l-.043.086a8.837 8.837 0 001.97-.661" fill="#aec937"/><path data-name="Path 38" d="M16.46 36.727a14.4 14.4 0 01-.395-2.643.274.274 0 00-.069-.184 9.927 9.927 0 00-2.648-1.744.114.114 0 01-.025-.012l.925-1.836a4.321 4.321 0 011.887 1.348c.013-.078.019-.121.024-.161a10.267 10.267 0 011.057-3.52 4.86 4.86 0 011.594-1.855 2.2 2.2 0 01.894-.357c-.053.086-.1.144-.133.207-.1.162-.2.323-.279.491a6.6 6.6 0 00-.56 1.936c-.2 1.465-.386 2.931-.561 4.4a42.549 42.549 0 01-.755 4.79c-.074.323-.158.641-.235.962l-.045.086a8.192 8.192 0 01-.678-1.9" fill="#aec937"/><path data-name="Path 39" d="M10.893 37.415c-.11-.094-.228-.185-.326-.288a1.725 1.725 0 01-.153-2.256 1.879 1.879 0 012.327-.54 1.759 1.759 0 01.941 2.072 1.858 1.858 0 01-2.267 1.222.567.567 0 00-.112-.015c-.138-.064-.277-.128-.415-.2" fill="#aec937"/><path data-name="Path 40" d="M23.462 36.742a14.079 14.079 0 00.411-2.638.264.264 0 01.073-.184 9.911 9.911 0 012.656-1.726.124.124 0 00.028-.01l-.911-1.846a4.354 4.354 0 00-1.9 1.331 5.397 5.397 0 01-.023-.163 10.23 10.23 0 00-1.031-3.526 4.843 4.843 0 00-1.581-1.862 2.243 2.243 0 00-.89-.368c.055.087.1.147.132.211.093.163.194.322.273.493a6.473 6.473 0 01.547 1.937c.194 1.468.366 2.936.529 4.4a43.585 43.585 0 00.722 4.8c.074.319.153.642.228.961l.042.087a8.129 8.129 0 00.694-1.9" fill="#3154ba"/><path data-name="Path 41" d="M31.56 33.017a15.665 15.665 0 01-2.388-1.352.309.309 0 00-.192-.064 10.189 10.189 0 00-3.061.908.094.094 0 01-.026.013l-.911-1.842a4.435 4.435 0 012.266-.588 4.979 4.979 0 00-.117-.119 10.619 10.619 0 01-2.193-2.991 4.679 4.679 0 01-.508-2.359 2.036 2.036 0 01.267-.9c.037.092.056.164.086.23.072.172.138.35.223.516a6.8 6.8 0 001.219 1.631q1.59 1.6 3.215 3.166a45.257 45.257 0 013.412 3.558c.214.257.42.519.631.777l.042.088a8.919 8.919 0 01-1.965-.672" fill="#3154ba"/><path data-name="Path 42" d="M28.645 37.643c-.144.024-.291.055-.436.065a1.834 1.834 0 01-1.924-1.292 1.752 1.752 0 011.014-2.09 1.887 1.887 0 012.267.584 1.741 1.741 0 01-.421 2.467.558.558 0 00-.081.076c-.138.064-.277.128-.419.19" fill="#3154ba"/><path data-name="Path 43" d="M35.946 27.748a14.688 14.688 0 00-1.882-1.956.277.277 0 01-.1-.169 9.209 9.209 0 01.26-3.08.253.253 0 00.008-.027l-2.063-.464a4.043 4.043 0 00-.108 2.263c-.07-.041-.11-.063-.146-.086a11.162 11.162 0 00-3.5-1.424 5.183 5.183 0 00-2.5.031 2.214 2.214 0 00-.852.442c.105.013.178.019.253.031.191.029.383.053.57.1a7.01 7.01 0 011.911.8 215.46 215.46 0 013.9 2.35 47.558 47.558 0 004.338 2.448c.3.143.615.286.921.428l.1.022a8.394 8.394 0 00-1.11-1.709" fill="#c9187e"/><path data-name="Path 44" d="M37.975 19.323a15.921 15.921 0 01-2.586.957.3.3 0 00-.17.105 9.267 9.267 0 00-1.17 2.874.068.068 0 01-.008.028l-2.059-.464a4.093 4.093 0 01.937-2.073 2.292 2.292 0 00-.17.014 11.364 11.364 0 01-3.792-.215 5.052 5.052 0 01-2.228-1.088 2.068 2.068 0 01-.559-.761c.1.03.167.059.239.079.186.053.371.115.559.154a7.265 7.265 0 002.082.1 258.04 258.04 0 004.572-.447 47.336 47.336 0 015.012-.351c.342 0 .683.007 1.023.008l.1.023a8.971 8.971 0 01-1.775 1.059" fill="#c9187e"/><path data-name="Path 45" d="M39.906 24.405c-.07.124-.138.254-.219.369a1.876 1.876 0 01-2.246.65 1.757 1.757 0 01-1.062-2.07 1.838 1.838 0 011.887-1.344 1.806 1.806 0 011.737 1.856.5.5 0 00.011.109c-.035.144-.07.289-.107.435" fill="#c9187e"/><path data-name="Path 46" d="M36.44 12.733a15.612 15.612 0 00-2.759.2.3.3 0 01-.2-.026 9.809 9.809 0 01-2.333-2.118.107.107 0 00-.017-.023l-1.666 1.258a4.309 4.309 0 001.767 1.5l-.16.057a11.044 11.044 0 00-3.338 1.75 4.829 4.829 0 00-1.531 1.9 2.032 2.032 0 00-.174.919c.075-.073.126-.123.183-.171.143-.125.282-.256.437-.368a7.019 7.019 0 011.839-.943 223.37 223.37 0 014.335-1.473 48.187 48.187 0 004.692-1.741c.306-.139.615-.286.921-.428l.077-.059a8.857 8.857 0 00-2.073-.232" fill="#75297f"/><path data-name="Path 47" d="M30.881 5.937a14.515 14.515 0 01-.84 2.546.279.279 0 00-.02.194 9.383 9.383 0 001.6 2.677.089.089 0 01.017.023l-1.66 1.264a4.128 4.128 0 01-1.1-2c-.047.065-.072.1-.094.138a10.745 10.745 0 01-2.54 2.723 5.071 5.071 0 01-2.273 1 2.225 2.225 0 01-.966-.053c.086-.055.153-.089.214-.131.16-.106.323-.207.473-.325a6.843 6.843 0 001.379-1.509q1.261-1.85 2.489-3.725a44.393 44.393 0 012.841-4c.212-.259.432-.509.646-.765l.08-.059a8.173 8.173 0 01-.248 2" fill="#75297f"/><path data-name="Path 48" d="M36.203 7.659c.055.132.121.262.162.4a1.749 1.749 0 01-.881 2.1 1.88 1.88 0 01-2.337-.492 1.73 1.73 0 01.087-2.261 1.9 1.9 0 012.589-.152.529.529 0 00.094.06c.094.116.192.233.285.351" fill="#75297f"/><path data-name="Path 49" d="M24.521 2.973a14.526 14.526 0 00-1.553 2.21.274.274 0 01-.148.133 10.252 10.252 0 01-3.17.448h-.029l-.006 2.044a4.483 4.483 0 002.31-.408 2.875 2.875 0 01-.053.156 10.171 10.171 0 00-.65 3.61 4.681 4.681 0 00.59 2.337 2.145 2.145 0 00.639.7c-.01-.1-.02-.172-.025-.244-.011-.187-.031-.372-.025-.559a6.479 6.479 0 01.375-1.975c.482-1.4.985-2.8 1.5-4.193a44.169 44.169 0 001.5-4.626c.076-.318.149-.643.224-.963v-.1a8.555 8.555 0 00-1.476 1.423" fill="#d62027"/><path data-name="Path 50" d="M15.549 2.959A14.807 14.807 0 0117.1 5.173a.3.3 0 00.146.138 10.25 10.25 0 003.165.456.164.164 0 01.029 0v2.04a4.451 4.451 0 01-2.308-.413c.024.076.038.116.053.156a10.232 10.232 0 01.636 3.612 4.677 4.677 0 01-.6 2.338 2.1 2.1 0 01-.643.7c.009-.1.022-.171.027-.243.013-.187.033-.373.029-.559a6.544 6.544 0 00-.368-1.979q-.719-2.1-1.481-4.2A42.937 42.937 0 0114.3 2.59c-.078-.32-.147-.643-.222-.964v-.1a8.64 8.64 0 011.469 1.429" fill="#d62027"/><path data-name="Path 51" d="M20.25.002a4.247 4.247 0 01.422.124 1.761 1.761 0 011.157 1.966 1.858 1.858 0 01-3.633-.008A1.788 1.788 0 0119.68.034a.7.7 0 00.107-.033h.464" fill="#d62027"/></g><g data-name="Group 244"><path data-name="Path 24" d="M74.026 32.342h-3.667a.726.726 0 01-.743-.7v-10.77H59.059V31.64a.727.727 0 01-.743.7h-3.672a.727.727 0 01-.74-.7V6.868a.7.7 0 01.74-.666h3.673a.7.7 0 01.743.666v9.709h10.55V6.868a.694.694 0 01.743-.666h3.671a.7.7 0 01.744.666V31.64a.725.725 0 01-.742.7"/><path data-name="Path 25" d="M90.735 32.621c-6.127 0-10.581-3.237-10.581-10.978v-4.749c0-7.74 4.454-10.976 10.581-10.976S101.32 9.15 101.32 16.894v4.749c0 7.742-4.457 10.978-10.585 10.978m5.384-15.726c0-4.642-1.743-6.72-5.384-6.72s-5.382 2.078-5.382 6.72v4.749c0 4.647 1.744 6.72 5.382 6.72s5.384-2.073 5.384-6.72v-4.749z"/><path data-name="Path 26" d="M122.446 10.279h-6.5v21.36a.728.728 0 01-.744.7h-3.675a.728.728 0 01-.743-.7v-21.36h-6.5a.672.672 0 01-.744-.633v-2.78a.7.7 0 01.744-.665h18.157a.7.7 0 01.743.665v2.78a.672.672 0 01-.743.633"/><path data-name="Path 27" d="M134.404 32.621a29.994 29.994 0 01-6.575-.631.777.777 0 01-.708-.7v-2.54a.689.689 0 01.708-.672h.073c1.488.178 5.2.351 6.575.351 3.3 0 4.3-1.124 4.3-3.167 0-1.369-.7-2.073-3.153-3.445l-4.9-2.779c-3.455-1.936-4.382-3.978-4.382-6.441 0-3.869 2.377-6.683 9.284-6.683a43.322 43.322 0 017.125.635.73.73 0 01.674.667v2.6a.62.62 0 01-.634.633h-.076c-2.449-.209-4.9-.35-7.311-.35-2.748 0-3.9.912-3.9 2.5 0 1.164.631 1.868 3.045 3.13l4.457 2.36c4.085 2.144 5.164 4.394 5.164 7.174 0 3.556-2.344 7.354-9.768 7.354"/><path data-name="Path 28" d="M168.563 32.342h-3.936a.774.774 0 01-.706-.6l-1.706-6.685h-8.542l-1.708 6.685a.775.775 0 01-.707.6h-3.938a.624.624 0 01-.669-.6 1.268 1.268 0 00.042-.175l6.09-22.061c.889-3.275 3.559-3.589 5.158-3.589s4.273.314 5.164 3.589l6.089 22.061a1.5 1.5 0 00.035.175.622.622 0 01-.667.6m-10.026-21.746c-.112-.42-.221-.563-.594-.563s-.482.142-.593.563l-2.675 10.454h6.539z"/><path data-name="Path 29" d="M187.43 32.129a42.228 42.228 0 01-6.313.492c-4.826 0-8.574-1.231-8.574-7.215v-18.5a.724.724 0 01.743-.7h3.674a.723.723 0 01.74.7v18.503c0 2.326.744 3.027 2.9 3.027h6.83a.728.728 0 01.74.7v2.252c0 .492-.183.634-.74.739"/><path data-name="Path 30" d="M207.138 32.129a37.014 37.014 0 01-7.055.492c-4.829 0-8.576-1.231-8.576-7.215V13.129c0-5.98 3.748-7.211 8.576-7.211a36.857 36.857 0 017.055.492c.559.071.742.245.742.738v2.25a.727.727 0 01-.742.706h-7.576c-2.152 0-2.932.7-2.932 3.024v3.8h10.064a.725.725 0 01.74.705v2.531a.724.724 0 01-.74.706h-10.056v4.534c0 2.326.78 3.027 2.932 3.027h7.568a.728.728 0 01.742.7v2.252c0 .492-.184.671-.742.74"/></g></g></svg>