<svg xmlns="http://www.w3.org/2000/svg" width="15.933" height="15.932" viewBox="0 0 15.933 15.932">
  <path id="Path_630" data-name="Path 630" d="M.234,15.05l.65.65c-.426.223-.716.295-.83.181S.011,15.476.234,15.05Zm-.157-.51,1.316,1.316A11.615,11.615,0,0,0,4.071,14.3L1.63,11.863A11.617,11.617,0,0,0,.077,14.54ZM6.152,6.953,8.981,9.782c-.427.479-.885.964-1.371,1.45a31.814,31.814,0,0,1-3.236,2.846L1.856,11.559A31.839,31.839,0,0,1,4.7,8.323C5.188,7.838,5.673,7.38,6.152,6.953ZM4.51,12.821c-.189.144-.006.471.185.325A33.869,33.869,0,0,0,8.123,9.894a.187.187,0,0,0-.265-.264A33.278,33.278,0,0,1,4.51,12.821ZM15.279,3.813l-5.3,5.3a2.227,2.227,0,0,1-.671.459L6.358,6.63a2.222,2.222,0,0,1,.459-.672l4.6-4.6-.771.227-3.96,3.96a.28.28,0,1,1-.4-.4L10.3,1.14a.28.28,0,0,1,.119-.071L12.264.526a2.232,2.232,0,0,1,3.015,3.287ZM14.568.936c-.189-.145-.455.118-.264.264a1.532,1.532,0,0,1,.333,1.924c-.109.214.215.4.325.185A1.907,1.907,0,0,0,14.568.936Z" transform="translate(0 -0.002)" fill="#fff"/>
</svg>
