<svg xmlns="http://www.w3.org/2000/svg" width="20.482" height="20.467" viewBox="0 0 20.482 20.467">
  <g id="phone_2_" data-name="phone (2)" transform="translate(0.513 0.574)">
    <g id="Group_50" data-name="Group 50" transform="translate(0 0)">
      <g id="Group_49" data-name="Group 49" transform="translate(0 0)">
        <path id="Path_81" data-name="Path 81" d="M19.886,15.979,15.96,13.361a1.146,1.146,0,0,0-1.534.249l-1.143,1.47a.489.489,0,0,1-.627.132l-.218-.12A13.145,13.145,0,0,1,9.013,12.4,13.2,13.2,0,0,1,6.322,8.976L6.2,8.759a.489.489,0,0,1,.129-.629L7.8,6.987a1.146,1.146,0,0,0,.25-1.534L5.433,1.527A1.14,1.14,0,0,0,3.9,1.181l-1.642.986A2.316,2.316,0,0,0,1.2,3.537C.608,5.691,1.052,9.408,6.528,14.885c4.356,4.355,7.6,5.527,9.827,5.527a5.726,5.726,0,0,0,1.519-.2,2.313,2.313,0,0,0,1.37-1.056l.987-1.641A1.14,1.14,0,0,0,19.886,15.979Zm-.211,1.206-.985,1.642a1.67,1.67,0,0,1-.986.764c-1.988.546-5.462.094-10.719-5.163S1.276,5.7,1.822,3.708a1.673,1.673,0,0,1,.765-.987l1.642-.985a.494.494,0,0,1,.667.15L6.318,4.022l1.194,1.79a.5.5,0,0,1-.108.666L5.934,7.621a1.131,1.131,0,0,0-.3,1.452l.117.212a13.711,13.711,0,0,0,2.8,3.575,13.725,13.725,0,0,0,3.574,2.8l.212.117a1.131,1.131,0,0,0,1.452-.3l1.143-1.47A.5.5,0,0,1,15.6,13.9l3.925,2.618A.494.494,0,0,1,19.675,17.185Z" transform="translate(-1 -1.018)" fill="#00b3f6" stroke="#00b3f6" stroke-width="1"/>
        <path id="Path_82" data-name="Path 82" d="M282.951,69.97a5.5,5.5,0,0,1,5.494,5.494.323.323,0,1,0,.646,0,6.147,6.147,0,0,0-6.141-6.141.323.323,0,0,0,0,.646Z" transform="translate(-271.962 -66.737)" fill="#00b3f6" stroke="#00b3f6" stroke-width="1"/>
        <path id="Path_83" data-name="Path 83" d="M282.951,121.17a3.559,3.559,0,0,1,3.555,3.555.323.323,0,1,0,.646,0,4.206,4.206,0,0,0-4.2-4.2.323.323,0,0,0,0,.646Z" transform="translate(-271.962 -115.998)" fill="#00b3f6" stroke="#00b3f6" stroke-width="1"/>
        <path id="Path_84" data-name="Path 84" d="M282.951,172.37a1.618,1.618,0,0,1,1.616,1.616.323.323,0,0,0,.646,0,2.265,2.265,0,0,0-2.262-2.262.323.323,0,0,0,0,.646Z" transform="translate(-271.962 -165.259)" fill="#00b3f6" stroke="#00b3f6" stroke-width="1"/>
      </g>
    </g>
  </g>
</svg>
