<svg xmlns="http://www.w3.org/2000/svg" width="9.741" height="13.853"><g data-name="Group 364"><g data-name="Group 363"><path data-name="Path 603" d="M4.87 0A4.871 4.871 0 00.727 7.431l3.866 6.23a.406.406 0 00.345.192.406.406 0 00.345-.2l3.768-6.291A4.871 4.871 0 004.87 0zm3.487 6.949l-3.425 5.719L1.417 7a4.061 4.061 0 116.94-.055z" fill="#4e4e4e"/></g></g><g data-name="Group 366"><g data-name="Group 365"><path data-name="Path 604" d="M4.87 2.435A2.435 2.435 0 107.305 4.87 2.438 2.438 0 004.87 2.435zm0 4.064A1.629 1.629 0 116.496 4.87 1.63 1.63 0 014.87 6.499z" fill="#4e4e4e"/></g></g></svg>