<svg xmlns="http://www.w3.org/2000/svg" width="15.822" height="15.822"><g data-name="tag (1)"><path data-name="Path 605" d="M4.79 11.644l.002-6.647a2.036 2.036 0 01.176-.772 2.031 2.031 0 01.418-.67l1.79-2c.161-.162.741-.815.741-.815s.62.652.784.815l1.745 2.003a2.03 2.03 0 01.421.667 1.959 1.959 0 01.17.769l.005 6.652a.805.805 0 01-.247.59.842.842 0 01-.596.253l-2.282-2.132-2.287 2.127a.805.805 0 01-.587-.244.842.842 0 01-.252-.596zm3.126-6.801a.842.842 0 00.599-1.435.842.842 0 00-1.19 1.19.811.811 0 00.59.245z" fill="none" stroke="#fff"/></g></svg>