<svg xmlns="http://www.w3.org/2000/svg" width="11.743" height="13.853"><g data-name="Group 367" fill="#4e4e4e"><path data-name="Path 546" d="M6.234.863h.515v.228a.289.289 0 00.289.289h1.836a.289.289 0 00.289-.289V.863h.515V2.58h.346V.69a.173.173 0 00-.173-.173h-.688V.289A.289.289 0 008.874 0H7.038a.289.289 0 00-.289.289v.228h-.688a.173.173 0 00-.173.173v1.89h.346z"/><path data-name="Path 547" d="M.37 11.955h2.227v-.434a.173.173 0 01.173-.173h1.231a.173.173 0 01.173.173v.434h2.227a.384.384 0 00.37-.4V9.134a.384.384 0 00-.37-.4H.371a.384.384 0 00-.37.4v2.421a.384.384 0 00.369.4z"/><path data-name="Path 548" d="M6.77 13.457v-1.263a.693.693 0 01-.37.107H4.174v.287a.788.788 0 01-1.577 0v-.287H.37a.693.693 0 01-.37-.107v1.263a.384.384 0 00.37.4H6.4a.384.384 0 00.37-.4z"/><path data-name="Path 549" d="M3.385 13.03a.443.443 0 00.442-.442v-.895h-.884v.895a.443.443 0 00.442.442z"/><path data-name="Path 550" d="M5.889 4.048h4.133a.171.171 0 01.171.171v1.378a.171.171 0 01-.171.171H5.889a.171.171 0 01-.171-.171V4.219a.171.171 0 01.171-.171z"/><path data-name="Path 551" d="M11.228 2.751H4.684a.516.516 0 00-.516.516v4.006h.06a.832.832 0 01.817.844v.273h.327v-.817a.863.863 0 01.862-.862h3.444a.863.863 0 01.862.862v5.166h.688a.516.516 0 00.516-.516V3.268a.516.516 0 00-.516-.517zm-.688 2.841a.518.518 0 01-.518.518H5.889a.518.518 0 01-.518-.518V4.214a.518.518 0 01.518-.518h4.133a.518.518 0 01.518.518z"/><path data-name="Path 552" d="M9.678 7.062H6.234a.516.516 0 00-.516.516v.817h.683a.731.731 0 01.716.743v3.606h3.077V7.58a.516.516 0 00-.516-.518z"/><path data-name="Path 553" d="M2.173 8.122a.384.384 0 01.37-.4h1.684a.384.384 0 01.37.4v.446h.346v-.446a.731.731 0 00-.716-.743H2.543a.731.731 0 00-.716.743v.446h.346z"/></g></svg>