<svg id="upload" xmlns="http://www.w3.org/2000/svg" width="5.095" height="10.6" viewBox="0 0 5.095 10.6">
  <g id="Group_290" data-name="Group 290" transform="translate(0 0)">
    <g id="Group_289" data-name="Group 289" transform="translate(0 0)">
      <path id="Path_593" data-name="Path 593" d="M69.581,3.078l-2.363-3A.138.138,0,0,0,66.99.048a.193.193,0,0,0-.021.027l-2.363,3a.3.3,0,0,0-.01.342.171.171,0,0,0,.134.078h1.12v3.89a.333.333,0,0,0,.249.307h1.99c.1,0,.124-.161.124-.307V3.5h1.244a.222.222,0,0,0,.184-.245A.279.279,0,0,0,69.581,3.078Z" transform="translate(-64.546 0)" fill="#817f7f"/>
      <path id="Path_594" data-name="Path 594" d="M124.088,264.722H122.1a.25.25,0,0,0,0,.484h1.99a.25.25,0,0,0,0-.484Z" transform="translate(-120.545 -256.543)" fill="#817f7f"/>
      <path id="Path_595" data-name="Path 595" d="M124.088,296.069H122.1a.25.25,0,0,0,0,.484h1.99a.25.25,0,0,0,0-.484Z" transform="translate(-120.545 -286.921)" fill="#817f7f"/>
      <path id="Path_596" data-name="Path 596" d="M124.088,327.415H122.1a.25.25,0,0,0,0,.484h1.99a.25.25,0,0,0,0-.484Z" transform="translate(-120.545 -317.299)" fill="#817f7f"/>
    </g>
  </g>
</svg>
