<svg xmlns="http://www.w3.org/2000/svg" width="5.095" height="10.6"><g data-name="Group 290"><g data-name="Group 289" fill="#817f7f"><path data-name="Path 593" d="M5.035 3.078l-2.363-3a.138.138 0 00-.228-.03.193.193 0 00-.021.027l-2.363 3a.3.3 0 00-.01.342.171.171 0 00.134.078h1.12v3.89a.333.333 0 00.249.307h1.99c.1 0 .124-.161.124-.307V3.5h1.244a.222.222 0 00.184-.245.279.279 0 00-.06-.177z"/><path data-name="Path 594" d="M3.543 8.179H1.555a.25.25 0 000 .484h1.99a.25.25 0 000-.484z"/><path data-name="Path 595" d="M3.543 9.148H1.555a.25.25 0 000 .484h1.99a.25.25 0 000-.484z"/><path data-name="Path 596" d="M3.543 10.116H1.555a.25.25 0 000 .484h1.99a.25.25 0 000-.484z"/></g></g></svg>