<svg xmlns="http://www.w3.org/2000/svg" width="14.614" height="16.423" viewBox="0 0 14.614 16.423">
  <g id="Group_348" data-name="Group 348" transform="translate(0)">
    <path id="Path_603" data-name="Path 603" d="M-981.528,966.505q-3.1,0-6.192,0a.959.959,0,0,1-1.08-1.114,7.309,7.309,0,0,1,7.539-7.1,7.315,7.315,0,0,1,7.033,6.614c.015.182.038.365.041.548a.943.943,0,0,1-1.038,1.048Q-978.377,966.508-981.528,966.505Zm5.379-1.845a5.384,5.384,0,0,0-5.656-4.553c-2.531.139-5.225,2.573-5.016,4.553Z" transform="translate(988.801 -950.082)" fill="#fff"/>
    <path id="Path_604" data-name="Path 604" d="M-935.357,846.31a3.664,3.664,0,0,1,3.649,3.667,3.679,3.679,0,0,1-3.645,3.64,3.68,3.68,0,0,1-3.668-3.691A3.667,3.667,0,0,1-935.357,846.31Zm0,5.465a1.8,1.8,0,0,0,1.806-1.818,1.814,1.814,0,0,0-1.846-1.819,1.819,1.819,0,0,0-1.79,1.84A1.81,1.81,0,0,0-935.353,851.775Z" transform="translate(942.671 -846.31)" fill="#fff"/>
  </g>
</svg>
