<svg xmlns="http://www.w3.org/2000/svg" width="28.828" height="26.84" viewBox="0 0 28.828 26.84">
  <path id="Icon_ionic-ios-star-outline" data-name="Icon ionic-ios-star-outline" d="M29.022,12.32H19.885L17.108,4.033a1.006,1.006,0,0,0-1.888,0L12.443,12.32h-9.2a1,1,0,0,0-.994.994.73.73,0,0,0,.019.168.955.955,0,0,0,.416.7l7.51,5.292L7.312,27.855a1,1,0,0,0,.342,1.118.961.961,0,0,0,.559.242,1.218,1.218,0,0,0,.621-.224l7.33-5.224,7.33,5.224a1.164,1.164,0,0,0,.621.224.892.892,0,0,0,.553-.242.985.985,0,0,0,.342-1.118l-2.882-8.379,7.448-5.342.18-.155a1.042,1.042,0,0,0,.323-.665A1.052,1.052,0,0,0,29.022,12.32Zm-7.9,5.746a1.744,1.744,0,0,0-.634,1.975l1.87,5.448a.249.249,0,0,1-.379.286L17.17,22.345a1.736,1.736,0,0,0-1.012-.323,1.7,1.7,0,0,0-1.006.323l-4.808,3.423a.248.248,0,0,1-.379-.286l1.87-5.448a1.75,1.75,0,0,0-.64-1.988L6.163,14.5a.25.25,0,0,1,.143-.453h6.131a1.737,1.737,0,0,0,1.646-1.186l1.839-5.479a.25.25,0,0,1,.472,0l1.839,5.479a1.737,1.737,0,0,0,1.646,1.186h6.044a.246.246,0,0,1,.143.447Z" transform="translate(-1.75 -2.875)" fill="#fff" stroke="#fff" stroke-width="1"/>
</svg>
