<svg xmlns="http://www.w3.org/2000/svg" width="400" height="200" viewBox="0 0 400 200">
  <g id="Group_69" data-name="Group 69" transform="translate(-528 -726)">
    <g id="Rectangle_6" data-name="Rectangle 6" transform="translate(528 726)" fill="rgba(8,8,52,0.25)" stroke="#fff" stroke-width="1">
      <rect width="400" height="200" stroke="none"/>
      <rect x="0.5" y="0.5" width="399" height="199" fill="none"/>
    </g>
    <path id="Icon_zocial-persona" data-name="Icon zocial-persona" d="M27.112,39.814a123.684,123.684,0,0,1-13.694-.464s.536-8.176,4.277-9.645,4.656-1.263,5.953-2.047c.033-.018.065-.038.1-.054V25.4a10.137,10.137,0,0,1-2.818-4.618,3.652,3.652,0,0,1-1.065-2.492,3.394,3.394,0,0,1,.519-1.773c.221-4.609,3.153-7.66,6.74-7.66s6.521,3.05,6.74,7.66a3.385,3.385,0,0,1,.519,1.773,3.652,3.652,0,0,1-1.065,2.492A10.115,10.115,0,0,1,30.5,25.4v2.2c.033.016.064.036.1.054,1.3.784,2.215.574,5.956,2.047s4.274,9.645,4.274,9.645a124.333,124.333,0,0,1-13.712.464M44.334-.035H2.406A2.412,2.412,0,0,0-.006,2.378V48.225a2.411,2.411,0,0,0,2.413,2.411H44.334L66.049,25.3,44.334-.035Z" transform="matrix(0.946, 0.326, -0.326, 0.946, 574.901, 797.64)" fill="#fea900"/>
    <text id="განსაკუთრებული_შეთავაზებები_მხოლოდ_VIP_მომხმარებლებისთვის" data-name="განსაკუთრებული შეთავაზებები მხოლოდ VIP
მომხმარებლებისთვის" transform="translate(648 795)" fill="#eaeaea" font-size="18" font-family="FiraGO-Light, FiraGO" font-weight="300"><tspan x="0" y="17">განსაკუთრებული </tspan><tspan x="0" y="39">შეთავაზებები მხოლოდ VIP</tspan><tspan x="0" y="61">მომხმარებლებისთვის</tspan></text>
  </g>
</svg>
