<svg xmlns="http://www.w3.org/2000/svg" width="45.423" height="43.864" viewBox="0 0 45.423 43.864">
  <g id="Group_55" data-name="Group 55" transform="translate(4239.344 -697.302)">
    <path id="Path_41" data-name="Path 41" d="M-4208.65,713.281a16.1,16.1,0,0,0,.932,2.893.3.3,0,0,1,.02.221,10.765,10.765,0,0,1-1.832,3.032c-.006.007-.016.014-.023.023l1.876,1.451a4.715,4.715,0,0,0,1.263-2.265c.052.073.079.114.106.156a12.1,12.1,0,0,0,2.86,3.112,5.76,5.76,0,0,0,2.569,1.151,2.587,2.587,0,0,0,1.1-.049c-.1-.062-.172-.106-.242-.152-.181-.122-.364-.237-.532-.373a7.645,7.645,0,0,1-1.552-1.721q-1.424-2.111-2.8-4.249a51.39,51.39,0,0,0-3.2-4.558c-.238-.293-.485-.583-.727-.875l-.087-.067a9.157,9.157,0,0,0,.263,2.27" transform="translate(-20.21 -9.3)" fill="#fea900" fill-rule="evenodd"/>
    <path id="Path_42" data-name="Path 42" d="M-4231.51,737.271a18.128,18.128,0,0,1,3.132.244.353.353,0,0,0,.23-.028,11.1,11.1,0,0,0,2.665-2.387.2.2,0,0,1,.019-.024l1.875,1.449a4.863,4.863,0,0,1-2.015,1.681c.087.032.134.05.18.065a12.584,12.584,0,0,1,3.774,2.015,5.5,5.5,0,0,1,1.728,2.167,2.3,2.3,0,0,1,.186,1.044c-.084-.078-.142-.139-.2-.194-.163-.144-.32-.293-.494-.421a8.047,8.047,0,0,0-2.082-1.086q-2.446-.877-4.909-1.7a53.071,53.071,0,0,1-5.31-2.013c-.35-.159-.7-.329-1.044-.492l-.087-.069a10.291,10.291,0,0,1,2.355-.245" transform="translate(-3.717 -25.625)" fill="#fea900" fill-rule="evenodd"/>
    <path id="Path_43" data-name="Path 43" d="M-4225.962,721.718a4.891,4.891,0,0,1,.412-.273,2.139,2.139,0,0,1,2.629.4,1.957,1.957,0,0,1,.034,2.62,2.149,2.149,0,0,1-2.615.484,1.988,1.988,0,0,1-.835-2.723.684.684,0,0,0,.046-.114c.108-.132.218-.265.33-.4" transform="translate(-8.655 -16.188)" fill="#fea900" fill-rule="evenodd"/>
    <path id="Path_44" data-name="Path 44" d="M-4236.3,762.513a17.453,17.453,0,0,0,2.925,1.1.326.326,0,0,1,.192.124,10.594,10.594,0,0,1,1.314,3.272.123.123,0,0,0,0,.031l2.346-.507a4.686,4.686,0,0,0-1.049-2.365c.093.007.143.013.192.018a12.847,12.847,0,0,0,4.307-.215,5.741,5.741,0,0,0,2.536-1.218,2.415,2.415,0,0,0,.645-.857c-.114.037-.192.065-.274.087-.211.06-.419.127-.635.169a8.165,8.165,0,0,1-2.363.1c-1.733-.163-3.462-.348-5.188-.544a55.78,55.78,0,0,0-5.687-.436c-.386,0-.775,0-1.162,0l-.109.023a9.915,9.915,0,0,0,2,1.218" transform="translate(-0.703 -43.394)" fill="#fea900" fill-rule="evenodd"/>
    <path id="Path_45" data-name="Path 45" d="M-4227.794,781.351a17.124,17.124,0,0,1,2.152-2.208.332.332,0,0,0,.121-.191,10.45,10.45,0,0,0-.273-3.5.124.124,0,0,1-.008-.029l2.345-.51a4.571,4.571,0,0,1,.1,2.568l.167-.095a12.675,12.675,0,0,1,3.986-1.588,5.861,5.861,0,0,1,2.835.05,2.476,2.476,0,0,1,.961.512c-.115.014-.2.019-.285.033-.218.032-.437.058-.649.109a8.062,8.062,0,0,0-2.179.891q-2.235,1.3-4.445,2.635a52.375,52.375,0,0,1-4.942,2.747c-.348.165-.7.318-1.051.479l-.11.023a9.533,9.533,0,0,1,1.271-1.928" transform="translate(-6.973 -52.652)" fill="#fea900" fill-rule="evenodd"/>
    <path id="Path_46" data-name="Path 46" d="M-4239.344,776.969a4.629,4.629,0,0,1,.035-.481,2.059,2.059,0,0,1,1.967-1.729,2.074,2.074,0,0,1,2.145,1.609,2.006,2.006,0,0,1-1.24,2.273,2.129,2.129,0,0,1-2.728-1.068.573.573,0,0,0-.064-.107c-.038-.163-.078-.329-.115-.5" transform="translate(0 -52.545)" fill="#fea900" fill-rule="evenodd"/>
    <path id="Path_47" data-name="Path 47" d="M-4214.456,791.461a17.154,17.154,0,0,0,2.719-1.516.333.333,0,0,1,.22-.068,11.535,11.535,0,0,1,3.47,1.051.166.166,0,0,0,.029.015l1.053-2.085a5.089,5.089,0,0,0-2.572-.685c.064-.066.1-.1.135-.134a11.985,11.985,0,0,0,2.513-3.38,5.314,5.314,0,0,0,.6-2.671,2.345,2.345,0,0,0-.294-1.021c-.04.108-.066.185-.1.261-.083.2-.158.395-.26.583a7.574,7.574,0,0,1-1.4,1.841q-1.819,1.806-3.677,3.571a52.277,52.277,0,0,0-3.9,4.014c-.242.289-.481.586-.722.876l-.049.1a9.98,9.98,0,0,0,2.236-.751" transform="translate(-15.367 -56.758)" fill="#fea900" fill-rule="evenodd"/>
    <path id="Path_48" data-name="Path 48" d="M-4188.758,800.672a16.337,16.337,0,0,1-.448-3,.312.312,0,0,0-.078-.209,11.264,11.264,0,0,0-3.005-1.977.152.152,0,0,1-.029-.013l1.049-2.085a4.919,4.919,0,0,1,2.146,1.523c.014-.088.021-.137.026-.184a11.668,11.668,0,0,1,1.2-4,5.519,5.519,0,0,1,1.81-2.1,2.488,2.488,0,0,1,1.014-.406c-.06.1-.111.164-.151.235-.109.184-.225.366-.317.557a7.482,7.482,0,0,0-.636,2.2q-.344,2.492-.637,4.994a48.2,48.2,0,0,1-.857,5.437c-.083.366-.179.728-.267,1.092l-.052.1a9.416,9.416,0,0,1-.768-2.16" transform="translate(-31.901 -61.678)" fill="#fea900" fill-rule="evenodd"/>
    <path id="Path_49" data-name="Path 49" d="M-4202.881,821.519c-.125-.107-.259-.21-.37-.326a1.959,1.959,0,0,1-.173-2.563,2.135,2.135,0,0,1,2.642-.612,2,2,0,0,1,1.069,2.353,2.111,2.111,0,0,1-2.568,1.388.67.67,0,0,0-.127-.017c-.157-.073-.314-.147-.472-.223" transform="translate(-24.098 -81.744)" fill="#fea900" fill-rule="evenodd"/>
    <path id="Path_50" data-name="Path 50" d="M-4164.113,800.673a15.977,15.977,0,0,0,.466-2.995.3.3,0,0,1,.083-.209,11.221,11.221,0,0,1,3.016-1.959.156.156,0,0,0,.031-.013l-1.034-2.094a4.941,4.941,0,0,0-2.159,1.511c-.013-.089-.02-.138-.026-.184a11.61,11.61,0,0,0-1.17-4,5.506,5.506,0,0,0-1.795-2.115,2.539,2.539,0,0,0-1.01-.416c.063.1.109.166.15.24.106.185.221.365.31.56a7.31,7.31,0,0,1,.62,2.2c.221,1.665.416,3.332.6,5a49.668,49.668,0,0,0,.819,5.445c.083.362.174.729.259,1.091l.049.1a9.283,9.283,0,0,0,.788-2.154" transform="translate(-48.596 -61.661)" fill="#fea900" fill-rule="evenodd"/>
    <path id="Path_51" data-name="Path 51" d="M-4145.049,791.6a17.756,17.756,0,0,1-2.711-1.535.346.346,0,0,0-.218-.072,11.522,11.522,0,0,0-3.475,1.032.188.188,0,0,1-.03.013l-1.034-2.091a5.036,5.036,0,0,1,2.572-.667c-.063-.066-.1-.1-.134-.135a12.012,12.012,0,0,1-2.487-3.4,5.3,5.3,0,0,1-.577-2.678,2.307,2.307,0,0,1,.3-1.017c.042.1.063.186.1.261.083.2.157.4.254.587a7.669,7.669,0,0,0,1.384,1.851q1.806,1.814,3.649,3.595a50.813,50.813,0,0,1,3.873,4.039c.244.291.478.588.717.882l.048.1a10.226,10.226,0,0,1-2.23-.767" transform="translate(-58.468 -56.816)" fill="#fea900" fill-rule="evenodd"/>
    <path id="Path_52" data-name="Path 52" d="M-4144.045,821.837c-.165.026-.331.062-.495.073a2.08,2.08,0,0,1-2.185-1.466,1.99,1.99,0,0,1,1.152-2.373,2.142,2.142,0,0,1,2.573.663,1.978,1.978,0,0,1-.477,2.8.608.608,0,0,0-.092.086c-.157.073-.315.146-.476.217" transform="translate(-62.781 -81.803)" fill="#fea900" fill-rule="evenodd"/>
    <path id="Path_53" data-name="Path 53" d="M-4138.539,781.608a16.665,16.665,0,0,0-2.136-2.22.314.314,0,0,1-.118-.193,10.475,10.475,0,0,1,.3-3.5c0-.009.007-.02.009-.031l-2.342-.527a4.6,4.6,0,0,0-.123,2.57c-.08-.046-.125-.072-.166-.1a12.65,12.65,0,0,0-3.974-1.615,5.875,5.875,0,0,0-2.833.034,2.5,2.5,0,0,0-.967.5c.119.014.2.021.287.035.217.034.435.061.648.115a7.992,7.992,0,0,1,2.169.9c1.488.873,2.96,1.766,4.426,2.667a54.231,54.231,0,0,0,4.924,2.779c.345.163.7.324,1.046.486l.11.024a9.434,9.434,0,0,0-1.255-1.937" transform="translate(-60.004 -52.805)" fill="#fea900" fill-rule="evenodd"/>
    <path id="Path_54" data-name="Path 54" d="M-4133.58,762.894a18.155,18.155,0,0,1-2.935,1.086.332.332,0,0,0-.193.119,10.529,10.529,0,0,0-1.333,3.262.13.13,0,0,1-.009.032l-2.339-.526a4.65,4.65,0,0,1,1.063-2.354c-.093.006-.144.009-.193.015a12.859,12.859,0,0,1-4.3-.243,5.745,5.745,0,0,1-2.529-1.236,2.355,2.355,0,0,1-.634-.863c.111.034.19.068.271.09.21.061.42.131.633.174a8.227,8.227,0,0,0,2.364.112c1.731-.152,3.462-.325,5.19-.507a53.748,53.748,0,0,1,5.689-.4c.388,0,.775.008,1.161.009l.111.027a10.1,10.1,0,0,1-2.014,1.2" transform="translate(-62.655 -43.656)" fill="#fea900" fill-rule="evenodd"/>
    <path id="Path_55" data-name="Path 55" d="M-4107.064,777.693c-.081.141-.156.288-.249.419a2.13,2.13,0,0,1-2.552.732,2,2,0,0,1-1.206-2.349,2.085,2.085,0,0,1,2.143-1.525,2.051,2.051,0,0,1,1.972,2.106.521.521,0,0,0,.013.123q-.059.247-.122.495" transform="translate(-86.978 -52.687)" fill="#fea900" fill-rule="evenodd"/>
    <path id="Path_56" data-name="Path 56" d="M-4135.659,737.528a17.662,17.662,0,0,0-3.132.223.343.343,0,0,1-.23-.031,11.132,11.132,0,0,1-2.648-2.4.266.266,0,0,0-.02-.026l-1.888,1.438a4.893,4.893,0,0,0,2.005,1.694c-.087.032-.134.049-.182.065a12.548,12.548,0,0,0-3.789,1.988,5.494,5.494,0,0,0-1.74,2.155,2.315,2.315,0,0,0-.2,1.043c.085-.082.143-.14.208-.194.162-.142.319-.29.5-.417a7.966,7.966,0,0,1,2.087-1.07c1.635-.578,3.278-1.13,4.922-1.672a54.782,54.782,0,0,0,5.326-1.977c.347-.158.7-.324,1.045-.486l.089-.067a10.1,10.1,0,0,0-2.354-.262" transform="translate(-62.318 -25.771)" fill="#fea900" fill-rule="evenodd"/>
    <path id="Path_57" data-name="Path 57" d="M-4149.2,713.5a16.51,16.51,0,0,1-.953,2.89.315.315,0,0,0-.022.221,10.639,10.639,0,0,0,1.812,3.04.092.092,0,0,1,.019.025l-1.884,1.435a4.682,4.682,0,0,1-1.245-2.271c-.053.074-.082.114-.107.156a12.18,12.18,0,0,1-2.883,3.091,5.759,5.759,0,0,1-2.58,1.136,2.532,2.532,0,0,1-1.1-.061c.1-.062.173-.1.244-.148.18-.12.366-.236.536-.369a7.77,7.77,0,0,0,1.566-1.712q1.433-2.1,2.827-4.229a50.263,50.263,0,0,1,3.226-4.537c.242-.293.491-.578.733-.869l.091-.067a9.332,9.332,0,0,1-.282,2.267" transform="translate(-55.088 -9.448)" fill="#fea900" fill-rule="evenodd"/>
    <path id="Path_58" data-name="Path 58" d="M-4119.782,722.3c.063.149.137.3.185.449a1.986,1.986,0,0,1-1,2.381,2.135,2.135,0,0,1-2.654-.558,1.963,1.963,0,0,1,.1-2.566,2.153,2.153,0,0,1,2.938-.173.547.547,0,0,0,.107.069c.107.132.217.264.324.4" transform="translate(-78.464 -16.302)" fill="#fea900" fill-rule="evenodd"/>
    <path id="Path_59" data-name="Path 59" d="M-4164.537,704.391a16.382,16.382,0,0,0-1.763,2.508.314.314,0,0,1-.168.152,11.617,11.617,0,0,1-3.6.512.262.262,0,0,0-.033,0l-.005,2.32a5.1,5.1,0,0,0,2.623-.463c-.027.086-.044.132-.06.177a11.551,11.551,0,0,0-.738,4.1,5.313,5.313,0,0,0,.669,2.653,2.436,2.436,0,0,0,.725.8c-.012-.114-.022-.2-.028-.277-.012-.212-.034-.422-.029-.635a7.317,7.317,0,0,1,.426-2.242c.547-1.593,1.118-3.179,1.7-4.76a50.3,50.3,0,0,0,1.7-5.251c.087-.361.169-.729.254-1.093l0-.107a9.673,9.673,0,0,0-1.676,1.615" transform="translate(-46.971 -3.714)" fill="#fea900" fill-rule="evenodd"/>
    <path id="Path_60" data-name="Path 60" d="M-4187.981,704.324a16.822,16.822,0,0,1,1.755,2.513.336.336,0,0,0,.166.155,11.622,11.622,0,0,0,3.6.518.217.217,0,0,1,.033,0l0,2.316a5.046,5.046,0,0,1-2.62-.47c.027.086.043.133.06.178a11.617,11.617,0,0,1,.722,4.1,5.324,5.324,0,0,1-.679,2.654,2.4,2.4,0,0,1-.73.791c.011-.112.026-.195.03-.275.015-.212.038-.424.034-.635a7.428,7.428,0,0,0-.418-2.246q-.817-2.389-1.681-4.763a48.705,48.705,0,0,1-1.683-5.256c-.089-.363-.166-.73-.252-1.094V702.7a9.8,9.8,0,0,1,1.669,1.623" transform="translate(-33.711 -3.663)" fill="#fea900" fill-rule="evenodd"/>
    <path id="Path_61" data-name="Path 61" d="M-4172.854,697.3a4.92,4.92,0,0,1,.479.14,2,2,0,0,1,1.313,2.232,2.068,2.068,0,0,1-2.1,1.661,2.072,2.072,0,0,1-2.022-1.67,2.03,2.03,0,0,1,1.684-2.327.864.864,0,0,0,.122-.038c.174,0,.349,0,.527,0" transform="translate(-43.503)" fill="#fea900" fill-rule="evenodd"/>
  </g>
</svg>
