<svg xmlns="http://www.w3.org/2000/svg" width="223.132" height="68.898" viewBox="0 0 223.132 68.898">
  <g id="Group_66" data-name="Group 66" transform="translate(-63.868 -22.58)">
    <g id="Group_65" data-name="Group 65" transform="translate(63.868 22.58)">
      <g id="Group_53" data-name="Group 53" transform="translate(0 0)">
        <path id="Path_41" data-name="Path 41" d="M-4208.134,714.576a25.2,25.2,0,0,0,1.464,4.545.468.468,0,0,1,.03.348,16.9,16.9,0,0,1-2.877,4.762c-.01.012-.026.023-.037.037l2.948,2.279a7.4,7.4,0,0,0,1.982-3.557c.083.114.125.179.167.244a18.99,18.99,0,0,0,4.493,4.889,9.041,9.041,0,0,0,4.035,1.807,4.06,4.06,0,0,0,1.724-.077c-.158-.1-.271-.166-.38-.238-.284-.193-.573-.373-.837-.587a12.041,12.041,0,0,1-2.437-2.7q-2.237-3.315-4.394-6.674a80.479,80.479,0,0,0-5.018-7.159c-.374-.46-.762-.916-1.142-1.374l-.136-.106a14.382,14.382,0,0,0,.413,3.565" transform="translate(4224.603 -704.086)" fill="#fea900" fill-rule="evenodd"/>
        <path id="Path_42" data-name="Path 42" d="M-4230.166,738.525a28.437,28.437,0,0,1,4.92.383.555.555,0,0,0,.362-.044,17.445,17.445,0,0,0,4.187-3.75.4.4,0,0,1,.028-.038l2.945,2.276a7.643,7.643,0,0,1-3.164,2.641c.136.051.209.078.283.1a19.774,19.774,0,0,1,5.928,3.165,8.635,8.635,0,0,1,2.713,3.4,3.628,3.628,0,0,1,.292,1.639c-.133-.122-.225-.219-.322-.3-.256-.226-.5-.46-.774-.661a12.622,12.622,0,0,0-3.27-1.706q-3.841-1.377-7.71-2.678a83.342,83.342,0,0,1-8.341-3.162c-.55-.25-1.093-.517-1.64-.773l-.137-.108a16.161,16.161,0,0,1,3.7-.384" transform="translate(4236.633 -715.993)" fill="#fea900" fill-rule="evenodd"/>
        <path id="Path_43" data-name="Path 43" d="M-4225.606,722.034a7.725,7.725,0,0,1,.646-.429,3.36,3.36,0,0,1,4.13.633,3.075,3.075,0,0,1,.053,4.116,3.376,3.376,0,0,1-4.108.76,3.124,3.124,0,0,1-1.312-4.277.97.97,0,0,0,.071-.179c.17-.207.343-.416.52-.622" transform="translate(4233.031 -709.11)" fill="#fea900" fill-rule="evenodd"/>
        <path id="Path_44" data-name="Path 44" d="M-4235.16,763.224a27.437,27.437,0,0,0,4.6,1.731.509.509,0,0,1,.3.195,16.617,16.617,0,0,1,2.064,5.139.183.183,0,0,0,.008.048l3.685-.8a7.361,7.361,0,0,0-1.648-3.715c.146.012.225.02.3.028a20.194,20.194,0,0,0,6.766-.338,9.014,9.014,0,0,0,3.982-1.913,3.785,3.785,0,0,0,1.014-1.347c-.179.058-.3.1-.431.137-.333.094-.658.2-1,.265a12.815,12.815,0,0,1-3.711.151c-2.722-.256-5.438-.546-8.15-.854a87.577,87.577,0,0,0-8.933-.686c-.605,0-1.218,0-1.825,0l-.171.037a15.549,15.549,0,0,0,3.147,1.913" transform="translate(4238.831 -728.955)" fill="#fea900" fill-rule="evenodd"/>
        <path id="Path_45" data-name="Path 45" d="M-4227.069,785.025a26.9,26.9,0,0,1,3.381-3.467.512.512,0,0,0,.189-.3,16.366,16.366,0,0,0-.429-5.5.229.229,0,0,1-.012-.046l3.683-.8a7.167,7.167,0,0,1,.165,4.034c.126-.071.2-.109.261-.148a19.909,19.909,0,0,1,6.261-2.494,9.2,9.2,0,0,1,4.453.078,3.9,3.9,0,0,1,1.511.8c-.182.023-.318.03-.449.052-.342.051-.685.09-1.019.171a12.63,12.63,0,0,0-3.421,1.4q-3.513,2.036-6.983,4.138a82.23,82.23,0,0,1-7.762,4.316c-.546.259-1.1.5-1.651.752l-.173.036a14.99,14.99,0,0,1,2-3.029" transform="translate(4234.257 -735.708)" fill="#fea900" fill-rule="evenodd"/>
        <path id="Path_46" data-name="Path 46" d="M-4239.344,778.231a7.327,7.327,0,0,1,.055-.756,3.234,3.234,0,0,1,3.09-2.715,3.257,3.257,0,0,1,3.369,2.528,3.151,3.151,0,0,1-1.949,3.57,3.344,3.344,0,0,1-4.283-1.678.886.886,0,0,0-.1-.168c-.06-.257-.122-.517-.18-.781" transform="translate(4239.344 -735.63)" fill="#fea900" fill-rule="evenodd"/>
        <path id="Path_47" data-name="Path 47" d="M-4213.179,797.45a27,27,0,0,0,4.27-2.382.524.524,0,0,1,.347-.106,18.106,18.106,0,0,1,5.45,1.651.281.281,0,0,0,.046.024l1.654-3.275a8,8,0,0,0-4.04-1.076c.1-.1.157-.158.211-.21a18.8,18.8,0,0,0,3.948-5.309,8.349,8.349,0,0,0,.935-4.2,3.679,3.679,0,0,0-.462-1.6c-.063.17-.1.291-.155.41-.132.308-.248.62-.409.916a11.906,11.906,0,0,1-2.192,2.891q-2.858,2.836-5.775,5.609a82.278,82.278,0,0,0-6.13,6.305c-.379.454-.756.92-1.133,1.376l-.078.152a15.7,15.7,0,0,0,3.513-1.179" transform="translate(4228.135 -738.703)" fill="#fea900" fill-rule="evenodd"/>
        <path id="Path_48" data-name="Path 48" d="M-4186.726,807.778a25.677,25.677,0,0,1-.7-4.712.5.5,0,0,0-.123-.329,17.693,17.693,0,0,0-4.722-3.105.246.246,0,0,1-.044-.021l1.647-3.275a7.726,7.726,0,0,1,3.371,2.392c.021-.138.035-.215.042-.288a18.324,18.324,0,0,1,1.885-6.275,8.67,8.67,0,0,1,2.844-3.306,3.906,3.906,0,0,1,1.593-.637c-.094.153-.174.258-.237.37-.171.289-.353.575-.5.874a11.782,11.782,0,0,0-1,3.453q-.541,3.915-1,7.844a75.665,75.665,0,0,1-1.346,8.54c-.132.575-.28,1.143-.419,1.715l-.081.153a14.746,14.746,0,0,1-1.206-3.393" transform="translate(4216.073 -742.292)" fill="#fea900" fill-rule="evenodd"/>
        <path id="Path_49" data-name="Path 49" d="M-4202.344,823.642c-.2-.168-.406-.33-.581-.512a3.076,3.076,0,0,1-.272-4.025,3.353,3.353,0,0,1,4.149-.961,3.135,3.135,0,0,1,1.678,3.7,3.314,3.314,0,0,1-4.033,2.181,1.065,1.065,0,0,0-.2-.027c-.245-.115-.494-.231-.741-.351" transform="translate(4221.765 -756.928)" fill="#fea900" fill-rule="evenodd"/>
        <path id="Path_50" data-name="Path 50" d="M-4162.06,807.794a25.22,25.22,0,0,0,.732-4.7.476.476,0,0,1,.131-.329,17.639,17.639,0,0,1,4.738-3.077.261.261,0,0,0,.049-.02l-1.624-3.289a7.758,7.758,0,0,0-3.391,2.373c-.021-.139-.03-.217-.041-.289a18.245,18.245,0,0,0-1.837-6.289,8.651,8.651,0,0,0-2.819-3.322,4,4,0,0,0-1.586-.654c.1.154.171.261.236.376.167.29.346.573.487.879a11.464,11.464,0,0,1,.974,3.455c.347,2.615.653,5.233.944,7.851a77.971,77.971,0,0,0,1.287,8.553c.13.569.272,1.146.407,1.713l.077.154a14.614,14.614,0,0,0,1.238-3.383" transform="translate(4203.896 -742.279)" fill="#fea900" fill-rule="evenodd"/>
        <path id="Path_51" data-name="Path 51" d="M-4140.421,797.618a27.944,27.944,0,0,1-4.259-2.411.545.545,0,0,0-.342-.113,18.091,18.091,0,0,0-5.458,1.621.238.238,0,0,1-.048.021l-1.623-3.285a7.91,7.91,0,0,1,4.04-1.048c-.1-.1-.153-.161-.209-.212a18.844,18.844,0,0,1-3.907-5.335,8.327,8.327,0,0,1-.907-4.206,3.619,3.619,0,0,1,.478-1.6c.065.165.1.292.151.41.13.309.245.623.4.922a12.059,12.059,0,0,0,2.173,2.907q2.838,2.849,5.732,5.647a79.53,79.53,0,0,1,6.084,6.345c.382.457.75.924,1.125,1.385l.076.156a16.081,16.081,0,0,1-3.5-1.205" transform="translate(4196.695 -738.745)" fill="#fea900" fill-rule="evenodd"/>
        <path id="Path_52" data-name="Path 52" d="M-4142.473,824.092c-.259.041-.52.1-.777.115a3.268,3.268,0,0,1-3.432-2.3,3.125,3.125,0,0,1,1.81-3.728,3.364,3.364,0,0,1,4.041,1.041,3.105,3.105,0,0,1-.749,4.4,1.043,1.043,0,0,0-.146.134c-.246.115-.494.229-.747.341" transform="translate(4193.55 -756.971)" fill="#fea900" fill-rule="evenodd"/>
        <path id="Path_53" data-name="Path 53" d="M-4131.487,785.3a26.222,26.222,0,0,0-3.355-3.488.49.49,0,0,1-.185-.3,16.421,16.421,0,0,1,.463-5.49c0-.015.012-.032.015-.049l-3.679-.828a7.238,7.238,0,0,0-.192,4.036c-.126-.072-.2-.113-.261-.153a19.854,19.854,0,0,0-6.243-2.537,9.22,9.22,0,0,0-4.45.053,3.936,3.936,0,0,0-1.519.789c.188.022.319.033.451.055.341.054.682.1,1.018.182a12.548,12.548,0,0,1,3.407,1.42c2.337,1.371,4.65,2.774,6.953,4.189a85.038,85.038,0,0,0,7.734,4.365c.543.256,1.1.509,1.643.763l.173.038a14.84,14.84,0,0,0-1.972-3.043" transform="translate(4195.576 -735.819)" fill="#fea900" fill-rule="evenodd"/>
        <path id="Path_54" data-name="Path 54" d="M-4125.929,763.6a28.419,28.419,0,0,1-4.611,1.706.521.521,0,0,0-.3.187,16.529,16.529,0,0,0-2.095,5.124.148.148,0,0,1-.013.05l-3.674-.826a7.3,7.3,0,0,1,1.67-3.7c-.146.01-.225.014-.3.024a20.2,20.2,0,0,1-6.762-.382,9.022,9.022,0,0,1-3.973-1.941,3.685,3.685,0,0,1-1-1.356c.174.053.3.106.425.141.331.1.661.206,1,.274a12.926,12.926,0,0,0,3.713.175c2.719-.24,5.438-.51,8.152-.8a84.509,84.509,0,0,1,8.937-.626c.609,0,1.217.012,1.825.014l.173.042a15.849,15.849,0,0,1-3.164,1.888" transform="translate(4193.642 -729.146)" fill="#fea900" fill-rule="evenodd"/>
        <path id="Path_55" data-name="Path 55" d="M-4104.742,779.248c-.128.221-.246.453-.392.658a3.344,3.344,0,0,1-4.007,1.15,3.133,3.133,0,0,1-1.894-3.689,3.275,3.275,0,0,1,3.366-2.4,3.222,3.222,0,0,1,3.1,3.307.874.874,0,0,0,.02.194c-.062.259-.126.518-.19.777" transform="translate(4175.9 -735.733)" fill="#fea900" fill-rule="evenodd"/>
        <path id="Path_56" data-name="Path 56" d="M-4128.911,738.8a27.742,27.742,0,0,0-4.919.351.539.539,0,0,1-.362-.048,17.477,17.477,0,0,1-4.159-3.776.318.318,0,0,0-.031-.041l-2.965,2.258a7.677,7.677,0,0,0,3.149,2.661c-.137.05-.211.078-.286.1a19.714,19.714,0,0,0-5.95,3.122,8.639,8.639,0,0,0-2.732,3.386,3.637,3.637,0,0,0-.31,1.638c.135-.129.225-.219.326-.3.256-.224.5-.455.779-.656a12.493,12.493,0,0,1,3.279-1.681c2.567-.907,5.149-1.775,7.73-2.626a85.985,85.985,0,0,0,8.366-3.105c.545-.249,1.1-.509,1.642-.763l.14-.1a15.867,15.867,0,0,0-3.7-.412" transform="translate(4193.887 -716.1)" fill="#fea900" fill-rule="evenodd"/>
        <path id="Path_57" data-name="Path 57" d="M-4144.1,714.789a26.054,26.054,0,0,1-1.5,4.54.49.49,0,0,0-.035.347,16.725,16.725,0,0,0,2.846,4.775.147.147,0,0,1,.031.04l-2.96,2.254a7.353,7.353,0,0,1-1.956-3.566c-.083.117-.128.178-.167.245a19.116,19.116,0,0,1-4.529,4.856,9.052,9.052,0,0,1-4.052,1.784,3.977,3.977,0,0,1-1.723-.1c.154-.1.273-.159.382-.232.284-.189.577-.37.843-.58a12.225,12.225,0,0,0,2.459-2.688q2.251-3.3,4.44-6.642a78.616,78.616,0,0,1,5.066-7.126c.379-.461.771-.907,1.151-1.365l.142-.1a14.691,14.691,0,0,1-.442,3.56" transform="translate(4199.161 -704.194)" fill="#fea900" fill-rule="evenodd"/>
        <path id="Path_58" data-name="Path 58" d="M-4117.556,722.85c.1.234.214.468.291.7a3.12,3.12,0,0,1-1.572,3.739,3.355,3.355,0,0,1-4.169-.877,3.082,3.082,0,0,1,.158-4.031,3.381,3.381,0,0,1,4.614-.272.905.905,0,0,0,.168.108c.169.207.342.415.51.627" transform="translate(4182.11 -709.193)" fill="#fea900" fill-rule="evenodd"/>
        <path id="Path_59" data-name="Path 59" d="M-4161.359,705.313a25.721,25.721,0,0,0-2.769,3.939.5.5,0,0,1-.264.238,18.247,18.247,0,0,1-5.652.8.41.41,0,0,0-.053-.006l-.008,3.645a8.017,8.017,0,0,0,4.119-.728c-.042.134-.068.208-.094.278a18.135,18.135,0,0,0-1.159,6.438,8.342,8.342,0,0,0,1.051,4.167,3.834,3.834,0,0,0,1.141,1.252c-.021-.179-.036-.307-.045-.435-.021-.333-.055-.662-.046-1a11.434,11.434,0,0,1,.67-3.521c.859-2.5,1.756-4.993,2.667-7.476a78.6,78.6,0,0,0,2.672-8.248c.138-.568.268-1.146.4-1.717l0-.169a15.171,15.171,0,0,0-2.633,2.536" transform="translate(4205.082 -700.011)" fill="#fea900" fill-rule="evenodd"/>
        <path id="Path_60" data-name="Path 60" d="M-4187.028,705.25a26.421,26.421,0,0,1,2.758,3.947.527.527,0,0,0,.261.244,18.253,18.253,0,0,0,5.651.814.32.32,0,0,1,.051,0l-.006,3.638a7.928,7.928,0,0,1-4.116-.738c.042.135.068.208.095.279a18.278,18.278,0,0,1,1.133,6.44,8.348,8.348,0,0,1-1.066,4.169,3.769,3.769,0,0,1-1.147,1.243c.017-.175.041-.306.047-.432.023-.333.059-.666.054-1a11.677,11.677,0,0,0-.658-3.528q-1.283-3.752-2.639-7.482a76.131,76.131,0,0,1-2.644-8.256c-.14-.571-.26-1.146-.4-1.719l0-.172a15.3,15.3,0,0,1,2.621,2.549" transform="translate(4214.754 -699.974)" fill="#fea900" fill-rule="evenodd"/>
        <path id="Path_61" data-name="Path 61" d="M-4171.5,697.305a7.736,7.736,0,0,1,.752.219,3.14,3.14,0,0,1,2.063,3.506,3.249,3.249,0,0,1-3.3,2.609,3.253,3.253,0,0,1-3.177-2.624,3.189,3.189,0,0,1,2.646-3.654,1.394,1.394,0,0,0,.19-.06c.273,0,.549,0,.827,0" transform="translate(4207.612 -697.302)" fill="#fea900" fill-rule="evenodd"/>
      </g>
    </g>
    <text id="VIPsale" transform="translate(220 76)" fill="#fea900" font-size="41" font-family="FiraGO-Regular, FiraGO"><tspan x="-66.525" y="0">VIPsale</tspan></text>
  </g>
</svg>
